<svg width="99" height="21" viewBox="0 0 99 21" fill="none" xmlns="http://www.w3.org/2000/svg">
<path d="M0.590909 1.78977V0.636363H14.8594V1.78977H8.34659V21H7.10369V1.78977H0.590909ZM19.3885 21V0.636363H25.6626C26.9486 0.636363 28.0556 0.888257 28.9837 1.39204C29.9117 1.89583 30.6243 2.59517 31.1214 3.49006C31.6186 4.37831 31.8672 5.41241 31.8672 6.59233C31.8672 7.759 31.6186 8.78646 31.1214 9.67472C30.6243 10.5563 29.9117 11.2457 28.9837 11.7429C28.0623 12.2401 26.9586 12.4886 25.6726 12.4886H20.0547V11.3253H25.6428C26.6901 11.3253 27.585 11.1297 28.3274 10.7386C29.0698 10.3475 29.6399 9.80066 30.0376 9.09801C30.4354 8.38873 30.6342 7.5535 30.6342 6.59233C30.6342 5.62453 30.4354 4.78267 30.0376 4.06676C29.6399 3.34422 29.0665 2.78409 28.3175 2.38636C27.575 1.98864 26.6802 1.78977 25.6328 1.78977H20.6314V21H19.3885ZM27.7507 11.7727L32.7621 21H31.3303L26.3487 11.7727H27.7507ZM36.0483 21H34.7358L42.0838 0.636363H43.5156L50.8636 21H49.5511L42.8494 2.23722H42.75L36.0483 21ZM37.9077 13.3338H47.6918V14.4872H37.9077V13.3338ZM51.9624 0.636363L58.6442 19.3991H58.7834L65.4652 0.636363H66.7777L59.4297 21H57.9979L50.6499 0.636363H51.9624ZM70.576 21V0.636363H81.9112V1.78977H71.8189V10.2315H81.3047V11.3849H71.8189V19.8466H82.1499V21H70.576ZM87.0643 21V0.636363H88.3072V19.8466H98.2504V21H87.0643Z" fill="white"/>
</svg>
