<svg width="198" height="74" viewBox="0 0 198 74" fill="none" xmlns="http://www.w3.org/2000/svg">
<path d="M0 0H115V41H0V0Z" fill="#F5A06F" fill-opacity="0.48"/>
<path d="M104 33H198V74H104V33Z" fill="#5AFDE2" fill-opacity="0.48"/>
<path d="M112.447 61V37.2H115.252V58.314H126.608V61H112.447ZM140.521 61.408C138.991 61.408 137.653 61.0963 136.509 60.473C135.375 59.8497 134.491 58.8523 133.857 57.481C133.222 56.0983 132.905 54.268 132.905 51.99V37.2H135.693V51.99C135.693 53.8033 135.914 55.2087 136.356 56.206C136.798 57.192 137.387 57.8777 138.124 58.263C138.86 58.6483 139.659 58.841 140.521 58.841C141.382 58.841 142.181 58.6483 142.918 58.263C143.654 57.8777 144.244 57.192 144.686 56.206C145.128 55.2087 145.349 53.8033 145.349 51.99V37.2H148.154V51.99C148.154 54.2567 147.836 56.0813 147.202 57.464C146.567 58.8467 145.677 59.8497 144.533 60.473C143.388 61.0963 142.051 61.408 140.521 61.408ZM162.373 61.391C160.764 61.391 159.392 61.0453 158.259 60.354C157.137 59.6627 156.225 58.7333 155.522 57.566C154.819 56.3873 154.304 55.067 153.975 53.605C153.646 52.1317 153.482 50.63 153.482 49.1C153.482 47.5247 153.652 46.006 153.992 44.544C154.332 43.0707 154.859 41.7503 155.573 40.583C156.298 39.4157 157.222 38.492 158.344 37.812C159.466 37.132 160.809 36.792 162.373 36.792C163.597 36.792 164.623 36.9903 165.45 37.387C166.277 37.7837 166.957 38.2993 167.49 38.934C168.023 39.5687 168.453 40.2317 168.782 40.923L166.3 42.266C165.881 41.4727 165.376 40.7927 164.787 40.226C164.198 39.648 163.393 39.359 162.373 39.359C161.274 39.359 160.339 39.6537 159.568 40.243C158.809 40.821 158.191 41.5917 157.715 42.555C157.25 43.507 156.91 44.5553 156.695 45.7C156.491 46.8447 156.389 47.978 156.389 49.1C156.389 50.324 156.502 51.5197 156.729 52.687C156.967 53.8543 157.324 54.897 157.8 55.815C158.287 56.733 158.905 57.464 159.653 58.008C160.412 58.552 161.319 58.824 162.373 58.824C163.438 58.824 164.294 58.5463 164.94 57.991C165.597 57.4243 166.136 56.6933 166.555 55.798L169.054 56.75C168.714 57.566 168.249 58.3253 167.66 59.028C167.071 59.7307 166.334 60.303 165.45 60.745C164.577 61.1757 163.552 61.391 162.373 61.391ZM175.3 61V37.2H178.105V47.332H186.758V37.2H189.546V61H186.758V49.967H178.105V61H175.3Z" fill="white"/>
<path d="M8.47107 28V4.2H11.5311L15.1181 18.599C15.2541 19.1543 15.3561 19.6133 15.4241 19.976C15.5034 20.3273 15.5657 20.6957 15.6111 21.081C15.6564 20.6957 15.7187 20.3273 15.7981 19.976C15.8774 19.6133 15.9851 19.1543 16.1211 18.599L19.7251 4.2H22.7171V28H20.1331V12.802C20.1331 12.564 20.1331 12.2353 20.1331 11.816C20.1444 11.3967 20.1671 11 20.2011 10.626C20.1217 11.0113 20.0424 11.3853 19.9631 11.748C19.8837 12.0993 19.7987 12.4507 19.7081 12.802L15.8491 28H15.3561L11.4801 12.802C11.4007 12.4507 11.3157 12.0937 11.2251 11.731C11.1457 11.3683 11.0664 11 10.9871 10.626C11.0097 11 11.0267 11.3967 11.0381 11.816C11.0494 12.2353 11.0551 12.564 11.0551 12.802V28H8.47107ZM35.1512 28V4.2H37.9392V28H35.1512ZM29.6432 28V25.416H43.4472V28H29.6432ZM29.6432 6.767V4.2H43.4472V6.767H29.6432ZM50.3734 28V4.2H53.1784V14.332H61.8314V4.2H64.6194V28H61.8314V16.967H53.1784V28H50.3734ZM69.4206 28L77.2576 4.2H79.5866L87.4746 28H84.5846L79.0766 10.66C79.0426 10.5353 78.9803 10.3257 78.8896 10.031C78.7989 9.73633 78.7083 9.436 78.6176 9.13C78.5269 8.824 78.4646 8.58033 78.4306 8.399C78.3853 8.58033 78.3173 8.824 78.2266 9.13C78.1473 9.436 78.0679 9.73633 77.9886 10.031C77.9093 10.3143 77.8469 10.524 77.8016 10.66L72.3786 28H69.4206ZM73.3816 22.067L74.1976 19.568H82.6806L83.4966 22.067H73.3816ZM98.0048 28V4.2H100.793V28H98.0048ZM92.4968 28V25.416H106.301V28H92.4968ZM92.4968 6.767V4.2H106.301V6.767H92.4968Z" fill="white"/>
</svg>
