<svg width="183" height="32" viewBox="0 0 183 32" fill="none" xmlns="http://www.w3.org/2000/svg">
<path d="M0.568727 25V1.2H7.79373C9.70906 1.2 11.2221 1.55133 12.3327 2.254C13.4434 2.94533 14.2367 3.835 14.7127 4.923C15.1887 5.99967 15.4267 7.12167 15.4267 8.289C15.4267 9.105 15.2851 9.93233 15.0017 10.771C14.7297 11.5983 14.2877 12.3577 13.6757 13.049C13.0751 13.7403 12.2874 14.3013 11.3127 14.732C10.3494 15.1513 9.17639 15.361 7.79373 15.361H3.37373V25H0.568727ZM3.37373 12.811H7.99773C9.15373 12.811 10.0717 12.5843 10.7517 12.131C11.4431 11.6777 11.9361 11.1053 12.2307 10.414C12.5367 9.71133 12.6897 9.003 12.6897 8.289C12.6897 7.643 12.5537 6.96867 12.2817 6.266C12.0211 5.56333 11.5507 4.96833 10.8707 4.481C10.1907 3.99367 9.23306 3.75 7.99773 3.75H3.37373V12.811ZM19.6159 25L27.4529 1.2H29.7819L37.6699 25H34.7799L29.2719 7.66C29.2379 7.53533 29.1756 7.32567 29.0849 7.031C28.9942 6.73633 28.9036 6.436 28.8129 6.13C28.7222 5.824 28.6599 5.58033 28.6259 5.399C28.5806 5.58033 28.5126 5.824 28.4219 6.13C28.3426 6.436 28.2632 6.73633 28.1839 7.031C28.1046 7.31433 28.0422 7.524 27.9969 7.66L22.5739 25H19.6159ZM23.5769 19.067L24.3929 16.568H32.8759L33.6919 19.067H23.5769ZM42.4711 25V1.2H49.6621C51.5661 1.2 53.0564 1.52867 54.1331 2.186C55.2211 2.832 55.9861 3.67067 56.4281 4.702C56.8814 5.722 57.1081 6.78733 57.1081 7.898C57.1081 8.69133 56.9834 9.48467 56.7341 10.278C56.4847 11.0713 56.0711 11.7967 55.4931 12.454C54.9264 13.1113 54.1727 13.644 53.2321 14.052C52.3027 14.4487 51.1524 14.6583 49.7811 14.681H45.2761V25H42.4711ZM53.9121 25L48.6931 14.205L51.6171 14.018L57.0061 25H53.9121ZM45.2761 12.131H49.7301C50.9087 12.131 51.8324 11.927 52.5011 11.519C53.1811 11.111 53.6627 10.5897 53.9461 9.955C54.2294 9.32033 54.3711 8.663 54.3711 7.983C54.3711 7.38233 54.2351 6.75333 53.9631 6.096C53.7024 5.43867 53.2377 4.88333 52.5691 4.43C51.9004 3.97667 50.9541 3.75 49.7301 3.75H45.2761V12.131ZM70.7152 25.408C69.4799 25.408 68.3579 25.1757 67.3492 24.711C66.3406 24.2463 65.4792 23.6287 64.7652 22.858C64.0512 22.076 63.5356 21.209 63.2182 20.257L65.8192 19.305C66.2499 20.3477 66.9016 21.1977 67.7742 21.855C68.6469 22.5123 69.6556 22.841 70.8002 22.841C72.0696 22.841 73.0726 22.4953 73.8092 21.804C74.5572 21.1127 74.9312 20.1097 74.9312 18.795C74.9312 17.8997 74.7046 17.129 74.2512 16.483C73.8092 15.8257 73.2256 15.259 72.5002 14.783C71.7749 14.307 70.9986 13.8877 70.1712 13.525C69.4346 13.2077 68.6922 12.8507 67.9442 12.454C67.2076 12.0573 66.5332 11.587 65.9212 11.043C65.3206 10.499 64.8332 9.85867 64.4592 9.122C64.0966 8.374 63.9152 7.507 63.9152 6.521C63.9152 5.47833 64.1759 4.52633 64.6972 3.665C65.2186 2.79233 65.9666 2.09533 66.9412 1.574C67.9159 1.05267 69.0832 0.792 70.4432 0.792C72.0639 0.792 73.4296 1.183 74.5402 1.965C75.6509 2.73567 76.3649 3.71033 76.6822 4.889L74.1152 5.756C73.8432 5.09867 73.3899 4.532 72.7552 4.056C72.1206 3.58 71.3159 3.342 70.3412 3.342C69.2532 3.342 68.3862 3.62533 67.7402 4.192C67.0942 4.75867 66.7712 5.518 66.7712 6.47C66.7712 7.22933 66.9866 7.87533 67.4172 8.408C67.8479 8.94067 68.4202 9.411 69.1342 9.819C69.8482 10.2157 70.6359 10.6067 71.4972 10.992C72.2226 11.3207 72.9536 11.7003 73.6902 12.131C74.4269 12.5617 75.1069 13.0773 75.7302 13.678C76.3536 14.2787 76.8522 14.9927 77.2262 15.82C77.6002 16.636 77.7872 17.5937 77.7872 18.693C77.7872 20.121 77.4756 21.3337 76.8522 22.331C76.2402 23.3283 75.4016 24.0933 74.3362 24.626C73.2709 25.1473 72.0639 25.408 70.7152 25.408ZM84.3734 25V1.2H98.1434V3.869H87.1784V11.366H94.6924V14.018H87.1784V22.331H98.8744V25H84.3734ZM105.325 25V1.2H112.516C114.42 1.2 115.91 1.52867 116.987 2.186C118.075 2.832 118.84 3.67067 119.282 4.702C119.735 5.722 119.962 6.78733 119.962 7.898C119.962 8.69133 119.837 9.48467 119.588 10.278C119.338 11.0713 118.925 11.7967 118.347 12.454C117.78 13.1113 117.026 13.644 116.086 14.052C115.156 14.4487 114.006 14.6583 112.635 14.681H108.13V25H105.325ZM116.766 25L111.547 14.205L114.471 14.018L119.86 25H116.766ZM108.13 12.131H112.584C113.762 12.131 114.686 11.927 115.355 11.519C116.035 11.111 116.516 10.5897 116.8 9.955C117.083 9.32033 117.225 8.663 117.225 7.983C117.225 7.38233 117.089 6.75333 116.817 6.096C116.556 5.43867 116.091 4.88333 115.423 4.43C114.754 3.97667 113.808 3.75 112.584 3.75H108.13V12.131ZM122.893 31.018V28.247H143.922V31.018H122.893ZM147.227 25V1.2H150.032V22.314H161.388V25H147.227ZM168.178 25V1.2H182.951V3.869H170.983V11.366H179.33V14.018H170.983V25H168.178Z" fill="white"/>
</svg>
