<svg width="30" height="30" viewBox="0 0 30 30" fill="none" xmlns="http://www.w3.org/2000/svg">
<g clip-path="url(#clip0_720_864)">
<path d="M11 18.75H15.5M11 18.75C8.51473 18.75 6.5 20.7646 6.5 23.25C6.5 25.7354 8.51473 27.75 11 27.75C13.4854 27.75 15.5 25.7354 15.5 23.25V18.75M11 18.75C8.51473 18.75 6.5 16.7354 6.5 14.25C6.5 11.7646 8.51473 9.75 11 9.75M15.5 18.75V14.25M11 9.75H15.5M11 9.75C8.51473 9.75 6.5 7.73527 6.5 5.25C6.5 2.76473 8.51473 0.75 11 0.75H15.5M15.5 14.25V9.75M15.5 14.25C15.5 16.7354 17.5147 18.75 20 18.75C22.4854 18.75 24.5 16.7354 24.5 14.25C24.5 11.7646 22.4854 9.75 20 9.75M15.5 14.25C15.5 11.7646 17.5147 9.75 20 9.75M15.5 9.75V0.75M15.5 9.75H20M15.5 0.75H20C22.4854 0.75 24.5 2.76473 24.5 5.25C24.5 7.73527 22.4854 9.75 20 9.75" stroke="white" stroke-width="2.3" stroke-linecap="round" stroke-linejoin="round"/>
</g>
<defs>
<clipPath id="clip0_720_864">
<rect width="30" height="30" fill="white"/>
</clipPath>
</defs>
</svg>
