<svg width="30" height="30" viewBox="0 0 30 30" fill="none" xmlns="http://www.w3.org/2000/svg">
<path d="M15 0C14.9955 0 14.9921 0 14.9876 0C14.9854 0 14.9842 0 14.982 0C14.9764 0 14.9707 0.00112564 14.964 0.00112564C6.6953 0.0202583 0 6.72794 0 15C0 23.2698 6.6953 29.9786 14.964 29.9989C14.9696 29.9989 14.9752 30 14.982 30C14.9842 30 14.9876 30 14.9876 30C14.9921 30 14.9966 30 15 30C23.2833 30 30 23.2833 30 15C30 6.71669 23.2833 0 15 0ZM15.5999 8.97659C17.1901 8.9327 18.7376 8.72337 20.2277 8.35985C20.6768 10.1279 20.9559 12.1661 20.9998 14.4001H15.5999V8.97659ZM15.5999 7.77686V1.29539C17.2171 1.74332 18.8558 3.89969 19.9002 7.20626C18.5148 7.54052 17.0765 7.73522 15.5999 7.77686ZM14.4001 1.28076V7.77686C12.9112 7.73522 11.4616 7.53714 10.0649 7.19726C11.1183 3.87042 12.7716 1.70618 14.4001 1.28189V1.28076ZM14.4001 8.97547V14.4001H8.96309C9.00698 12.1627 9.28609 10.1223 9.73627 8.35309C11.2376 8.71999 12.7975 8.9327 14.4001 8.97547ZM7.75548 14.4001H1.21549C1.34829 11.3153 2.49737 8.48927 4.33636 6.25075C5.67227 6.9868 7.08921 7.58891 8.57481 8.03909C8.08974 9.95236 7.79937 12.1098 7.75548 14.4001ZM7.75548 15.5999C7.79937 17.889 8.08974 20.0465 8.57481 21.9598C7.09034 22.4111 5.67227 23.0132 4.33636 23.7493C2.49625 21.5107 1.34716 18.6847 1.21549 15.5999H7.75548ZM8.96309 15.5999H14.4001V21.0178C12.7975 21.0606 11.2376 21.2744 9.73515 21.6424C9.28609 19.8743 9.00698 17.835 8.96309 15.5999ZM14.4001 22.2164V28.7192C12.7705 28.2938 11.1149 26.1273 10.0627 22.796C11.4593 22.4561 12.91 22.258 14.4001 22.2164ZM15.5999 28.7057V22.2175C17.0776 22.2603 18.5159 22.455 19.9013 22.7892C18.8569 26.0992 17.2183 28.2589 15.5999 28.7057ZM15.5999 21.0178V15.5999H20.9998C20.9559 17.8316 20.6779 19.8664 20.23 21.6334C18.7387 21.2699 17.1913 21.0594 15.601 21.0167L15.5999 21.0178ZM22.2074 15.5999H28.7856C28.6528 18.6847 27.5049 21.5096 25.6648 23.7481C24.3176 23.0076 22.8883 22.401 21.3914 21.9485C21.8754 20.0375 22.1646 17.8845 22.2085 15.601L22.2074 15.5999ZM22.2074 14.4001C22.1635 12.1121 21.8731 9.95911 21.3892 8.04584C22.886 7.59341 24.3142 6.98792 25.6603 6.24737C27.5015 8.4859 28.6517 11.313 28.7845 14.4001H22.2074ZM24.8342 5.33126C23.6401 5.96601 22.3807 6.4916 21.0639 6.89001C20.3628 4.63348 19.378 2.79112 18.2132 1.58126C20.7679 2.19463 23.0492 3.51591 24.8342 5.33126ZM11.7396 1.59251C10.5815 2.80012 9.60122 4.63348 8.90231 6.87875C7.59904 6.48147 6.34979 5.96151 5.16694 5.33126C6.93953 3.52829 9.20393 2.20926 11.7396 1.59251ZM5.16244 24.6642C6.34641 24.0329 7.59679 23.5118 8.90119 23.1145C9.60009 25.362 10.5804 27.1988 11.7396 28.4064C9.20168 27.7885 6.93615 26.4706 5.16244 24.6642ZM18.2132 28.4176C19.3791 27.2078 20.3639 25.3654 21.0662 23.1044C22.383 23.5039 23.6435 24.0272 24.8376 24.6654C23.0526 26.4818 20.7702 27.8065 18.2132 28.4176Z" fill="white"/>
</svg>
