<svg width="30" height="30" viewBox="0 0 30 30" fill="none" xmlns="http://www.w3.org/2000/svg">
<path d="M6.38215 23.6179C4.6777 21.9134 3.51695 19.7418 3.04669 17.3777C2.57643 15.0135 2.81778 12.563 3.74022 10.336C4.66267 8.10906 6.22478 6.20564 8.229 4.86646C10.2332 3.52728 12.5896 2.8125 15 2.8125" stroke="white" stroke-width="2.5" stroke-linecap="round" stroke-linejoin="round"/>
<path d="M23.6179 6.38232C25.3223 8.08678 26.4831 10.2584 26.9533 12.6225C27.4236 14.9867 27.1822 17.4372 26.2598 19.6642C25.3374 21.8911 23.7753 23.7946 21.771 25.1337C19.7668 26.4729 17.4105 27.1877 15 27.1877" stroke="white" stroke-width="2.5" stroke-linecap="round" stroke-linejoin="round"/>
<path d="M21.7527 7.58849C22.8443 7.58849 23.7291 6.70364 23.7291 5.61212C23.7291 4.5206 22.8443 3.63574 21.7527 3.63574C20.6612 3.63574 19.7764 4.5206 19.7764 5.61212C19.7764 6.70364 20.6612 7.58849 21.7527 7.58849Z" stroke="white" stroke-width="2.5" stroke-linecap="round" stroke-linejoin="round"/>
<path d="M8.24737 26.3639C9.33889 26.3639 10.2237 25.479 10.2237 24.3875C10.2237 23.296 9.33889 22.4111 8.24737 22.4111C7.15585 22.4111 6.271 23.296 6.271 24.3875C6.271 25.479 7.15585 26.3639 8.24737 26.3639Z" stroke="white" stroke-width="2.5" stroke-linecap="round" stroke-linejoin="round"/>
<path d="M12.4199 12.6869L14.3965 16.6399L20.9843 15.9814L17.0316 8.07568L12.4199 12.6869Z" stroke="white" stroke-width="2.5" stroke-linecap="round" stroke-linejoin="round"/>
<path d="M12.4201 12.6865L9.78493 14.0041C8.99306 14.4 9.05993 15.8478 9.45575 16.6395C9.85156 17.4312 10.9697 18.353 11.7615 17.9571L14.3966 16.6395" stroke="white" stroke-width="2.5" stroke-linecap="round" stroke-linejoin="round"/>
<path d="M13.814 16.9766L15.4609 20.2703L14.1435 20.9292L12.4966 17.6355" stroke="white" stroke-width="2.5" stroke-linecap="round" stroke-linejoin="round"/>
</svg>
