<svg width="294" height="58" viewBox="0 0 294 58" fill="none" xmlns="http://www.w3.org/2000/svg">
<path d="M14.8693 53.6051H9.48631L9.03173 51.7915H5.20325L4.74866 53.6051H0.0480957L4.21778 39.953H10.7187L14.8693 53.6051ZM8.19779 48.3926L7.13709 44.0394L6.03824 48.3926H8.19779Z" fill="#E85F62"/>
<path d="M58.3476 39.9645H54.6421L56.4371 44.6444L58.3476 39.9645Z" fill="#0E2E93"/>
<path d="M24.3345 39.953H12.6975V43.8483H15.976V53.6051H21.0549V53.5774H24.3345V39.9647V39.953Z" fill="#0E2E93"/>
<path d="M73.928 39.9645H66.1184L70.0232 45.9713L73.928 39.9645Z" fill="#0E2E93"/>
<path d="M31.2145 44.9169V44.84C31.2145 44.0896 30.7663 43.7138 29.8687 43.7138H29.3569V46.1199H29.8497C30.7599 46.1199 31.2145 45.7196 31.2145 44.9169Z" fill="#0E2E93"/>
<path d="M30.7365 39.9645C32.504 40.036 33.7989 40.4513 34.6169 41.2124C35.5197 42.0525 35.9722 43.2556 35.9722 44.8216V44.8985C35.9722 46.3492 35.5081 47.4764 34.5788 48.2781C33.6505 49.0798 32.2634 49.4812 30.4186 49.4812H29.3579V53.5782H36.2689V39.9645H30.7365Z" fill="#0E2E93"/>
<path d="M41.2104 53.5774H44.702V46.9034L41.2104 53.5774Z" fill="#0E2E93"/>
<path d="M44.8288 39.9645H41.3298V46.6545L44.8288 39.9645Z" fill="#0E2E93"/>
<path d="M70.0391 53.5774H73.8654V47.0647L70.0391 53.5774Z" fill="#0E2E93"/>
<path d="M57.2708 53.5774H61.8993V42.3421L57.2708 53.5774Z" fill="#0E2E93"/>
<path d="M66.1812 53.5774H70.0075L66.1812 47.0647V53.5774Z" fill="#0E2E93"/>
<path d="M49.7441 40.5572V53.5774H52.6868L54.1734 50.0365C54.1713 50.0323 50.7572 42.7264 49.7441 40.5572Z" fill="#0E2E93"/>
<path fill-rule="evenodd" clip-rule="evenodd" d="M56.3259 33.8149C56.1976 33.6473 56.0493 33.5481 56.115 33.3185C56.1404 33.2278 56.1934 33.1467 56.2167 33.057C56.2432 32.9577 56.1648 32.8553 56.1277 32.7688C56.079 32.6567 56.0578 32.3962 55.9041 32.3962C55.7134 32.3962 55.5237 32.2553 55.3425 32.2041C55.174 32.156 54.9981 32.1934 54.8265 32.1849C54.6771 32.1774 54.5308 32.1592 54.3814 32.1657C54.0667 32.1785 53.752 32.2233 53.4383 32.2543C53.4722 32.1358 53.1522 32.0034 53.0865 31.9703C52.8884 31.87 52.6765 31.8347 52.4953 31.7024C52.0481 31.3746 51.62 31.0181 51.1813 30.6786C50.661 30.2762 50.1301 29.8876 49.6099 29.4852C49.026 29.0336 48.4443 28.6493 47.7343 28.4262C47.641 28.3974 47.5467 28.3697 47.4503 28.3504V28.28C47.3359 28.2106 47.2214 28.1412 47.1059 28.0718C47.0837 28.0579 47.0784 27.995 47.0688 27.9704C47.0381 27.8893 46.9904 27.8103 46.9194 27.759C46.8188 27.6886 46.7096 27.7356 46.6026 27.6982C46.539 27.6758 46.521 27.6085 46.4638 27.5818C46.379 27.5423 46.2826 27.5818 46.2021 27.5157C46.1067 27.4356 46.1364 27.3118 46.0919 27.2104C46.0495 27.1143 45.9562 27.0449 45.8767 26.983C45.7538 26.8869 45.6298 26.794 45.5165 26.6862C45.2897 26.4685 45.1127 26.1856 44.8637 25.9924C44.6952 25.8621 44.3954 25.7991 44.1866 25.7927C44.051 25.7895 44.1495 25.8397 44.1432 25.9005C44.1432 25.8984 44.0902 25.8578 44.087 25.8557C43.9959 25.7757 43.9058 25.6945 43.8136 25.6177C43.607 25.4458 43.3792 25.306 43.1429 25.1789C43.0539 25.1309 42.8409 25.0615 42.8017 24.9548C42.7413 24.7872 42.5421 24.7594 42.4838 24.5758C42.4308 24.4103 42.2517 24.4295 42.1171 24.4915C42.0483 24.5235 42.0038 24.4157 41.9614 24.3794C41.9094 24.3356 41.8522 24.3239 41.7939 24.2972C41.7304 24.2694 41.6339 24.2299 41.6011 24.1627C41.5682 24.0954 41.6022 24.009 41.5704 23.9364C41.5354 23.8552 41.3033 23.7389 41.3192 23.6652C41.3796 23.4485 41.4146 23.2051 41.3743 22.981C41.3161 22.6618 41.0268 22.4024 40.8615 22.1366C40.7809 22.0063 40.7629 21.8996 40.7385 21.7512C40.7089 21.574 40.6411 21.4214 40.5881 21.2527C40.5489 21.1289 40.5383 21.0029 40.5372 20.8737C40.5351 20.5588 40.5605 20.2439 40.551 19.929C40.5468 19.8116 40.5383 19.7016 40.5648 19.5842C40.6283 19.3002 40.8901 19.1743 41.0882 18.9907C41.3796 18.7206 41.6488 18.4132 41.8787 18.0886C42.0525 17.8431 42.1924 17.5773 42.3471 17.319C42.4742 17.1055 42.6353 16.9539 42.8101 16.7799C42.9426 16.6475 43.1556 16.4703 43.1503 16.2675C43.1471 16.117 43.3771 15.9515 43.4767 15.8661C43.7712 15.6142 44.1093 15.4626 44.4462 15.2811C44.6698 15.1605 44.8976 15.0474 45.1244 14.9331V14.3652C45.4847 13.8518 46.0399 13.5208 46.4765 13.08C46.61 12.9444 46.7404 12.859 46.9014 12.7512C47.1653 12.5751 47.4069 12.3904 47.641 12.1758C47.9324 11.9079 48.2228 11.6378 48.5269 11.3837C48.7791 11.1734 49.0472 10.9802 49.2888 10.756C49.648 10.4209 50.038 10.1316 50.3389 9.73659C50.3749 9.68962 50.4385 9.54551 50.501 9.53697C50.7087 9.50922 50.909 9.39606 51.0923 9.29999C51.3858 9.14734 51.7101 8.98935 52.0396 8.93811C52.1742 8.91676 53.2614 8.92957 53.0738 8.5869C52.9912 8.43745 52.6192 8.55381 52.4942 8.56022C52.2929 8.57089 52.0894 8.56342 51.8891 8.54527V8.40329C52.1265 8.26452 52.3649 8.12148 52.5896 7.96135C52.7496 7.8482 52.9445 7.72224 53.0558 7.55571C53.1544 7.40839 53.0484 7.28777 52.8916 7.33367C52.7093 7.38704 52.544 7.52902 52.3798 7.62296C52.2155 7.7169 52.0523 7.81191 51.8881 7.90584C52.0746 7.7628 52.2611 7.62082 52.4476 7.47991C52.5398 7.41053 52.6309 7.34007 52.7241 7.27389C52.8227 7.2045 53.1067 6.90987 52.9011 6.78925C52.7824 6.71986 52.5588 6.88746 52.4645 6.94937C52.3374 7.0337 52.2134 7.12124 52.0894 7.20877C51.9686 7.2931 51.8489 7.3785 51.7291 7.4639C51.656 7.51621 51.6253 7.55144 51.5363 7.55144C51.673 7.35502 51.8107 7.15753 51.958 6.96859C52.0555 6.84369 52.1996 6.75722 52.2886 6.62806C52.348 6.54159 52.4158 6.26618 52.2388 6.27045C52.0534 6.27472 51.8828 6.49355 51.7641 6.61098C51.6136 6.76043 51.4579 6.9056 51.3106 7.05719C51.2004 7.17034 51.1145 7.33367 50.9832 7.42227C50.8274 7.52688 50.5868 7.5002 50.4088 7.47991C50.4088 7.3358 50.3834 7.17034 50.4152 7.02943C50.4438 6.90027 50.4396 6.75616 50.3834 6.63446C50.3368 6.53198 50.1354 6.29073 50.0221 6.45512C49.9489 6.5608 49.9627 6.75829 49.9479 6.88105C49.9267 7.05719 49.9044 7.23973 49.8451 7.40839C49.7402 7.70836 49.7911 8.02861 49.7126 8.33604C49.6745 8.48549 49.6501 8.59544 49.5569 8.7118C49.3979 8.90929 49.2347 9.10357 49.0641 9.29145C48.884 9.49 48.6975 9.69176 48.475 9.84334C48.1581 10.06 47.8434 10.281 47.5308 10.5041C47.2352 10.7144 46.9385 10.9247 46.6588 11.1574C46.4256 11.3517 46.1745 11.5599 45.9933 11.8075C45.8608 11.989 45.6712 12.0573 45.4815 12.1694C45.2791 12.289 45.0852 12.4288 44.9135 12.59C44.8722 12.5291 44.7726 12.558 44.7164 12.5772C44.4526 12.6669 44.2279 12.8633 43.9779 12.985C43.802 13.0704 43.643 13.1696 43.4735 13.2636C43.2923 13.3639 43.1662 13.5561 42.9415 13.5134L42.7307 13.3714C42.8441 13.2977 42.9013 13.1387 42.9415 13.017C42.9754 12.9145 43.0348 12.7736 43.0115 12.6626L42.8705 12.3786C42.9754 12.337 43.0793 12.2943 43.1842 12.2527C43.305 12.2036 43.518 12.2164 43.6473 12.2238C43.6568 12.2153 43.6642 12.2046 43.6706 12.194C43.6388 12.1256 43.572 12.0765 43.5031 12.0498L43.6462 11.9538L43.5996 11.7659C43.6642 11.7979 43.8232 11.7627 43.7956 11.6613C43.9503 11.5054 44.0785 11.3496 44.2099 11.1724C44.1803 11.1137 44.1856 11.0475 44.1453 10.992C44.1018 10.93 44.0658 10.882 44.0319 10.8137C44.2226 10.9898 44.4102 10.5714 44.1156 10.629L44.2099 10.534C44.2099 10.534 44.2099 10.3365 44.1464 10.2586C44.2714 10.1486 44.1665 10.0269 44.0266 10.0707C44.0065 10.0366 43.9853 10.0024 43.962 9.9693C44.0637 9.90419 44.0489 9.76648 43.9185 9.76648C43.9524 9.74086 43.9842 9.71311 44.0139 9.68215C44.0107 9.66934 44.0054 9.6576 43.998 9.64799C43.8867 9.64052 43.7712 9.65119 43.6589 9.65546C43.6494 9.64052 43.6377 9.63091 43.6239 9.62237C43.6239 9.62237 43.6239 9.62237 43.6239 9.6213C43.7066 9.60956 43.7893 9.56793 43.8475 9.50815C43.8486 9.49534 43.8475 9.48253 43.8444 9.46972C43.8041 9.43983 43.7575 9.42061 43.7087 9.40887C43.8115 9.38859 43.9154 9.35657 44.0203 9.35443C44.0298 9.34589 44.0372 9.33628 44.0446 9.32454C44.0192 9.24982 43.9482 9.20605 43.8761 9.18577C43.7564 9.15161 43.6536 9.2274 43.5466 9.20925C43.8772 9.10997 44.1983 8.97334 44.5257 8.86232C44.5299 8.84951 44.5299 8.8367 44.5236 8.82389C44.2332 8.78332 43.9471 8.8463 43.6706 8.93277C43.4989 8.98721 43.3272 9.04379 43.1524 9.08969C43.0231 9.12385 42.8324 9.19217 42.7074 9.13453C42.7084 9.13132 42.7095 9.12919 42.7095 9.12599C42.8345 9.11211 42.9998 9.05446 43.0443 8.92316C43.0358 8.91249 43.0263 8.90502 43.0147 8.89968C42.8451 8.98508 42.5791 8.91249 42.4001 8.89541C42.4085 8.87406 42.4138 8.85271 42.4149 8.82922C42.4064 8.81962 42.3979 8.81001 42.3884 8.80254C42.3831 8.80254 42.3778 8.80147 42.3725 8.80147C42.4742 8.75984 42.5431 8.65949 42.5357 8.54741C42.5272 8.5378 42.5187 8.52819 42.5092 8.52072C42.4711 8.51752 42.4297 8.52072 42.3937 8.5346C42.4742 8.41611 42.5113 8.25385 42.4488 8.11934C42.4361 8.11614 42.4234 8.11614 42.4107 8.11721C42.274 8.3179 42.1288 8.57089 41.9349 8.72141C41.9688 8.57089 41.9296 8.37661 41.8067 8.2752C41.7939 8.27733 41.7823 8.28053 41.7696 8.2848C41.7611 8.30188 41.7547 8.32003 41.7494 8.33818C41.7208 8.13108 41.5057 8.03394 41.35 7.93253C41.3372 7.9368 41.3277 7.94427 41.3203 7.95602C41.3722 8.08839 41.5778 8.24637 41.5333 8.39582C41.5153 8.40756 41.4994 8.42251 41.4845 8.43852C41.4814 8.23997 41.3595 8.1108 41.2927 7.9368C41.2345 7.78522 41.2514 7.65285 41.2557 7.49593C41.2461 7.48739 41.2345 7.48205 41.2217 7.47885C41.0098 7.68274 41.0204 7.94427 41.1698 8.17805C41.1232 8.13215 41.0734 8.08625 41.0342 8.06063C41.0384 7.88876 40.9642 7.69875 40.8297 7.5888C40.817 7.59093 40.8053 7.59414 40.7936 7.59947C40.782 7.63577 40.7756 7.6742 40.7735 7.71263C40.7555 7.59093 40.676 7.48739 40.5563 7.4575C40.5468 7.46604 40.5393 7.47671 40.534 7.48845C40.6029 7.6347 40.5595 7.79056 40.5531 7.94427C40.5309 7.91438 40.5044 7.8909 40.4726 7.87168C40.4895 7.85567 40.5097 7.83966 40.5256 7.82365C40.4779 7.80336 40.4302 7.76387 40.373 7.78735C40.303 7.8119 40.2702 7.89837 40.3624 7.91759C40.3603 7.9336 40.3581 7.95068 40.3581 7.96669C40.1314 7.83432 40.1271 7.69021 40.1716 7.4607C40.0434 7.40626 39.8114 7.46284 39.7224 7.33367C39.7086 7.3326 39.6969 7.33687 39.6863 7.34541C39.7012 7.50874 39.8686 7.50126 39.9587 7.59093C39.9587 7.59093 39.9597 7.59093 39.9587 7.592C39.8654 7.75213 39.9904 7.97843 40.1187 8.07664C40.0805 8.13642 40.0519 8.193 40.0519 8.193C40.0053 8.16418 39.9979 8.1076 39.9661 8.06277C39.9099 7.97843 39.8379 7.90905 39.7563 7.84927C39.6397 7.76921 39.5072 7.70729 39.3674 7.68487C39.3578 7.69341 39.3504 7.70409 39.3462 7.7169C39.4606 7.91011 39.6535 8.04142 39.8092 8.19727C39.7753 8.18232 39.7414 8.16631 39.7075 8.15137C39.6948 8.15457 39.6842 8.15991 39.6725 8.16631C39.6514 8.26452 39.7065 8.35953 39.7711 8.42892C39.7541 8.43532 39.7393 8.44386 39.7266 8.45667C39.6196 8.35526 39.4331 8.31363 39.3144 8.42038C39.3144 8.43319 39.3154 8.44599 39.3186 8.45774C39.3674 8.48869 39.4182 8.51645 39.4659 8.54847C39.396 8.5378 39.3229 8.5378 39.254 8.55595C39.2487 8.56769 39.2455 8.57943 39.2434 8.59224C39.2868 8.64882 39.3419 8.68832 39.3992 8.72995C39.2656 8.80254 39.1448 8.90608 39.0071 8.968C38.9297 9.00216 38.7867 8.92957 38.7136 8.90181L39.0654 9.25622C39.0145 9.34696 38.9615 9.44303 38.9308 9.54338C38.9001 9.64479 39.0103 9.74727 39.0654 9.82413L38.9954 10.1081L39.1364 10.1785C39.0866 10.328 39.0007 10.5169 38.9954 10.6749C38.9901 10.8372 39.0654 11.0048 39.0654 11.1713C38.7411 11.0827 38.6511 11.3997 38.6426 11.6677C38.5038 11.7552 38.2399 11.4051 38.1562 11.3261C38.0852 11.2588 38.0227 11.2524 37.9347 11.2215C37.8394 11.1884 37.7472 11.1446 37.6571 11.0998C37.7165 10.787 37.7684 10.4625 37.6762 10.1508C37.5554 9.74513 37.2576 9.38752 37.0234 9.04166C36.8465 8.95626 36.6335 8.93277 36.4597 9.04166C36.3209 9.08329 36.1959 8.73422 36.1651 8.65629C36.0401 8.33177 36.0486 7.95815 36.0178 7.61655C35.9532 6.88105 35.6533 6.18718 35.4478 5.48371C35.2623 4.84962 35.1733 4.19631 35.0122 3.55582C34.9699 3.38822 34.9095 3.23023 34.8353 3.07545C34.759 2.91852 34.6668 2.76054 34.6361 2.58653C34.6053 2.40933 34.6032 2.19797 34.6096 2.01756C34.6159 1.8521 34.653 1.69091 34.706 1.53506C34.7208 1.48915 34.8173 1.30021 34.7431 1.26605C34.5587 1.18385 34.3542 1.30021 34.3288 1.50196C34.262 1.05895 34.3182 0.601 34.2419 0.159059C34.1921 -0.125961 33.9791 0.103549 33.9304 0.273281C33.8837 0.435539 33.8922 0.61808 33.8742 0.785676C33.8625 0.900966 33.853 1.01625 33.8477 1.13154C33.7566 0.850793 33.6559 0.568976 33.5309 0.302103C33.498 0.232716 33.4143 0.00107026 33.3136 2.77287e-06C33.1229 -0.00106472 33.1303 0.306373 33.1589 0.428067C33.0985 0.326655 32.9046 0.117427 32.8686 0.35441C32.8474 0.495319 32.9142 0.634093 32.9629 0.762192C33.0562 1.01305 33.1515 1.26498 33.2458 1.51584C33.1134 1.42937 32.965 1.35251 32.841 1.25324C32.752 1.18278 32.6768 1.09205 32.5899 1.01732C32.4956 0.93726 32.4129 1.11873 32.4182 1.18812C32.431 1.37493 32.6503 1.51904 32.769 1.6418C32.8898 1.76563 33.0063 1.89053 33.0901 2.04318C33.1653 2.17982 33.2607 2.30258 33.3168 2.44883C33.3793 2.61109 33.3995 2.79043 33.4419 2.95909C33.4758 3.09146 33.5129 3.24197 33.5976 3.35193C33.6443 3.41277 33.7174 3.4544 33.7862 3.48429C33.8202 3.49817 33.9145 3.51205 33.9208 3.55902C33.9431 3.72235 33.9346 3.89848 33.9484 4.06394C34.0077 4.79197 34.0882 5.5168 34.1826 6.24162C34.2726 6.93549 34.3171 7.66886 34.5651 8.32857C34.6414 8.53139 34.6234 8.74062 34.671 8.95305C34.7558 9.32454 34.9222 9.66507 34.9932 10.0408C35.0207 10.1903 35.043 10.3408 35.0642 10.4913C35.0748 10.5607 35.0716 10.6888 35.1182 10.7464C35.1373 10.771 35.2263 10.7998 35.221 10.834C35.2146 10.8788 35.1638 10.913 35.1288 10.9332C35.026 10.9941 34.9105 11.0357 34.8183 11.1137C34.7187 11.198 34.7378 11.2802 34.8077 11.3784C34.919 11.5364 35.0578 11.672 35.1638 11.8342C35.2581 11.9794 35.3015 12.1513 35.3524 12.3157C35.4001 12.4736 35.4562 12.638 35.47 12.8035C35.4796 12.9177 35.5145 13.0266 35.5283 13.1408C35.5495 13.3202 35.5294 13.5006 35.5792 13.6756C35.6162 13.8059 35.6311 13.8656 35.54 13.9639C35.1924 14.3364 35.0557 14.8541 34.9667 15.3441C34.8512 15.9804 34.8703 16.5974 34.9593 17.2336C34.9964 17.4941 34.9624 17.7588 34.9254 18.0171C34.866 18.4196 34.7802 18.8273 34.6954 19.2245C34.6552 19.4102 34.5799 19.5831 34.5333 19.7667C34.4814 19.9717 34.4241 20.1745 34.3415 20.3709C34.28 20.5172 34.2027 20.6592 34.2027 20.8214C34.2027 21.0093 34.1338 21.1993 34.0978 21.3829C34.0268 21.7448 34.0607 22.1248 34.0162 22.4931C34.0056 22.5828 33.9738 22.665 34.0183 22.7472C34.0702 22.8443 34.137 22.9351 34.2027 23.0226C34.2493 23.1454 34.1624 23.251 34.1031 23.3492C34.0395 23.4539 34.0999 23.5489 34.0194 23.6503C33.9272 23.7666 33.8202 23.8734 33.747 24.0025C33.6951 24.0944 33.6506 24.1765 33.5923 24.2662C33.5107 24.3922 33.5584 24.5491 33.5955 24.6815C33.6209 24.7733 33.6941 24.9227 33.6347 25.0145C33.5658 25.1202 33.4069 25.1736 33.3168 25.2633C33.0911 25.4885 32.9894 25.7522 32.8622 26.0404C32.7997 26.1834 32.7287 26.3233 32.6355 26.4492C32.52 26.6062 32.3674 26.7065 32.2233 26.8314C31.969 27.0502 31.7411 27.3256 31.5981 27.632C31.5652 27.7014 31.5101 27.8082 31.5324 27.8871C31.5568 27.9736 31.6532 28.0195 31.7199 28.0686C31.8037 28.1305 31.6606 28.1284 31.6193 28.1305C31.4953 28.1348 31.3766 28.1273 31.2622 28.075C31.1732 28.0334 31.0545 27.9053 30.9771 28.0249C30.9104 28.1263 30.8765 28.2544 30.8394 28.3686C30.7747 28.5661 30.7249 28.7678 30.6963 28.9749C30.6688 29.1639 30.7006 29.4606 30.5755 29.6197C30.5268 29.6827 30.4335 29.7254 30.3551 29.7083C30.2831 29.6933 30.2608 29.624 30.2004 29.5973C30.1506 29.5759 30.1241 29.815 30.1209 29.8353C30.0902 30.02 30.051 30.2047 29.9853 30.3797C29.9503 30.4737 29.9058 30.5633 29.8582 30.6519C29.8274 30.7075 29.8317 30.748 29.8168 30.8003C29.7914 30.89 29.6219 30.9722 29.5583 31.0288C29.4237 31.1494 29.3135 31.2946 29.215 31.4451C29.127 31.5807 29.0592 31.6874 28.9394 31.792C28.753 31.9564 28.5908 32.1454 28.4467 32.3482C28.0674 32.8777 27.7654 33.4744 27.4326 34.0348C27.1137 34.5718 26.7926 35.1066 26.4811 35.6478C26.3486 35.8784 26.2321 36.126 26.0562 36.3278C25.911 36.4954 25.7446 36.6064 25.6334 36.8039C25.5613 36.9309 25.5115 37.0612 25.3897 37.1487C25.1714 37.3067 24.8906 37.4102 24.6458 37.5138C24.4116 37.6131 24.1626 37.7017 23.9062 37.7113C23.8023 37.7145 23.6529 37.6568 23.5565 37.6985C23.4336 37.7508 23.513 37.9781 23.5544 38.0571C23.7122 38.3603 24.028 38.5813 24.312 38.7563C24.3639 38.7884 24.4021 38.8364 24.4519 38.8738C24.6045 38.9869 24.7676 38.9976 24.951 38.9837C25.094 38.973 25.254 38.9378 25.3536 38.8257C25.4204 38.751 25.3907 38.6421 25.4935 38.5962C25.6408 38.5311 25.8135 38.5375 25.964 38.4735C26.1272 38.4051 26.2151 38.2813 26.2872 38.1233C26.3454 37.9952 26.3942 37.8564 26.4853 37.7465C26.5775 37.6344 26.7025 37.58 26.8255 37.5095C27.0586 37.375 27.1518 37.011 27.2504 36.7761C27.4093 36.3972 27.7071 36.0865 27.9964 35.8037C28.576 35.2358 29.1916 34.7191 29.6823 34.0679C29.9705 33.6858 30.2142 33.2876 30.4738 32.8862C30.5236 32.8745 30.5734 32.8478 30.62 32.8286C30.7832 32.7624 30.957 32.7037 31.0958 32.5926C31.1689 32.5339 31.2262 32.4816 31.3226 32.4667C31.49 32.4411 31.6532 32.4742 31.8143 32.519C31.988 32.567 32.1639 32.6129 32.3441 32.6193C32.4914 32.6247 32.6323 32.6076 32.7775 32.645C32.9354 32.6855 33.0498 32.757 33.1483 32.8862C33.2395 33.0058 33.3454 33.1029 33.5054 33.1082C33.6231 33.1125 33.6623 33.0196 33.693 32.9225C33.7343 32.7901 33.8297 32.7175 33.888 32.5969C33.9357 32.4998 33.9643 32.3589 34.0734 32.3151C34.1402 32.2884 34.1995 32.2318 34.2546 32.187C34.848 31.6949 35.3439 31.0907 35.8282 30.495C36.0581 30.2121 36.2891 29.9271 36.535 29.657C36.6547 29.5257 36.7713 29.3966 36.9302 29.3144C37.2322 29.1585 37.5077 28.9418 37.8383 28.85C37.9792 28.8105 38.0799 28.7625 38.152 28.6269C38.2018 28.534 38.2537 28.4412 38.2929 28.343C38.419 28.2554 38.7062 28.3419 38.8407 28.359C39.1999 28.4049 39.5846 28.438 39.9173 28.5928C40.195 28.723 40.2935 29.0176 40.5012 29.2226C40.6771 29.3955 40.8731 29.2781 41.0755 29.3549C41.35 29.4585 41.6096 29.5695 41.8586 29.7286C42.1415 29.909 42.4096 30.1118 42.6989 30.2805C42.8218 30.3531 42.9532 30.3979 43.0804 30.4598C43.2255 30.5303 43.3442 30.6327 43.4724 30.7288C43.571 30.8025 43.696 30.8292 43.784 30.9156C43.821 30.9519 43.9228 31.1313 43.9853 31.0587C44.0446 30.9893 44.0605 30.8783 44.0923 30.795C44.1453 30.653 44.2248 30.5249 44.3424 30.4288C44.4727 30.3221 44.6359 30.2666 44.7652 30.1566C44.8341 30.0979 44.8764 30.0221 44.9358 29.9549C45.1445 29.7179 45.3331 29.9314 45.5483 30.0157C45.7051 30.0776 45.8789 30.0937 46.042 30.0467C46.1533 30.0147 46.3207 29.9634 46.4341 30.0211C46.5719 30.0915 46.7594 30.0905 46.9141 30.1332C47.1801 30.2057 47.3666 30.3402 47.5722 30.5164C48.0628 30.938 48.6159 31.19 49.24 31.3362C49.9246 31.4963 50.5625 31.8144 51.1145 32.2521C51.336 32.4272 51.5352 32.6268 51.7514 32.8072C51.9326 32.9588 52.1541 33.0677 52.367 33.168C52.935 33.4349 53.5782 33.5545 54.1928 33.6612C54.338 33.6868 54.4842 33.7551 54.6251 33.8C54.9006 33.8875 55.1783 33.9751 55.4633 34.0295C55.7049 34.0754 55.9454 34.1192 56.1881 34.1619C56.1849 34.1693 56.5018 34.0455 56.3259 33.8149ZM33.0858 0.955408L33.0742 0.92872C33.0795 0.93726 33.0837 0.9458 33.089 0.95434L33.0858 0.955408ZM43.4216 9.40247C43.4205 9.40567 43.4205 9.40674 43.4205 9.40887C43.4067 9.4078 43.3919 9.40567 43.3781 9.4046C43.394 9.4014 43.4088 9.39713 43.4247 9.39179C43.4226 9.39606 43.4226 9.40033 43.4216 9.40247C43.4226 9.40033 43.4205 9.40567 43.4216 9.40247ZM44.0181 10.7326C44.0097 10.7475 44.0075 10.7528 44.0075 10.7699L43.998 10.7507L44.0203 10.7283C44.0203 10.7294 44.0192 10.7304 44.0181 10.7326C44.0192 10.7304 44.015 10.7379 44.0181 10.7326ZM41.7155 8.57516C41.7155 8.57089 41.7166 8.56555 41.7177 8.56128C41.7166 8.5773 41.7177 8.59224 41.7198 8.60825C41.7155 8.59544 41.7145 8.5869 41.7155 8.57516C41.7145 8.58584 41.7166 8.57089 41.7155 8.57516Z" fill="#0E2E93"/>
<path d="M0.433393 55.2354V55.6997H0V55.2044C0 55.0336 0.0434453 54.8959 0.129276 54.7913C0.215107 54.6867 0.341204 54.6344 0.507568 54.6344H0.597637C0.787313 54.6344 0.924007 54.6781 1.00772 54.7646C1.09143 54.8511 1.13276 54.9813 1.13276 55.1542V55.6421C1.13276 55.8417 1.05964 55.9709 0.91447 56.0317C1.08401 56.084 1.16878 56.2271 1.16878 56.4608V57.0864C1.16878 57.238 1.12534 57.3661 1.03951 57.4696C0.953676 57.5732 0.819102 57.6255 0.636844 57.6255H0.519224C0.358158 57.6255 0.231002 57.5742 0.138813 57.4718C0.0466242 57.3693 0 57.2529 0 57.1216V56.4801H0.433393V57.0352C0.433393 57.1398 0.481077 57.1921 0.577504 57.1921C0.670752 57.1921 0.718436 57.1398 0.718436 57.0352V56.4416C0.718436 56.3477 0.672872 56.2997 0.581743 56.2997H0.38253V55.8556H0.581743C0.64956 55.8556 0.683468 55.7851 0.683468 55.6431V55.2375C0.683468 55.119 0.642142 55.0603 0.558431 55.0603C0.475779 55.0582 0.433393 55.1169 0.433393 55.2354Z" fill="#0E2E93"/>
<path d="M2.46512 57.5867L2.40684 57.0359H2.08259L2.02749 57.5867H1.6333L1.98828 54.6607H2.51174L2.89003 57.5878H2.46512V57.5867ZM2.24153 55.5179L2.12815 56.5993H2.35809L2.24153 55.5179Z" fill="#0E2E93"/>
<path d="M3.36987 57.5867V54.6607H4.065C4.23666 54.6607 4.35746 54.7013 4.42633 54.7824C4.49521 54.8636 4.53018 54.9821 4.53018 55.1368V55.5852C4.53018 55.7997 4.45706 55.9353 4.31189 55.9908C4.48144 56.0559 4.56621 56.199 4.56621 56.42V57.053C4.56621 57.2184 4.52806 57.3487 4.45071 57.4448C4.37441 57.5408 4.25573 57.5889 4.09785 57.5889H3.36987V57.5867ZM3.9442 55.0578H3.81174V55.8168H3.9442C4.04592 55.8168 4.09679 55.7485 4.09679 55.6119V55.2425C4.09679 55.1774 4.08619 55.1294 4.06394 55.1005C4.04169 55.0717 4.00142 55.0578 3.9442 55.0578ZM3.9442 56.2534H3.81174V57.1736H3.9442C4.01202 57.1736 4.05758 57.1576 4.08089 57.1266C4.1042 57.0957 4.11586 57.0455 4.11586 56.9772V56.4424C4.11586 56.3773 4.1042 56.3292 4.08089 56.2993C4.05758 56.2684 4.01202 56.2534 3.9442 56.2534Z" fill="#0E2E93"/>
<path d="M6.30654 55.3014V56.9336C6.30654 57.3926 6.11898 57.6221 5.74387 57.6221H5.6697C5.28929 57.6221 5.09961 57.3926 5.09961 56.9336V55.3046C5.09961 54.8562 5.28823 54.632 5.66546 54.632H5.73963C5.94308 54.632 6.08825 54.6897 6.17514 54.805C6.26204 54.9213 6.30654 55.0868 6.30654 55.3014ZM5.85725 56.9656V55.2822C5.85725 55.1327 5.80639 55.058 5.70466 55.058C5.60082 55.058 5.5489 55.1327 5.5489 55.2822V56.9656C5.5489 57.115 5.60188 57.1898 5.7089 57.1898C5.80745 57.1898 5.85725 57.115 5.85725 56.9656Z" fill="#0E2E93"/>
<path d="M7.94629 57.9999V57.5867H7.18123V57.9999H6.77856V57.1427H6.87605C6.92586 57.0402 6.96188 56.9174 6.98519 56.7733C7.0244 56.5107 7.04347 55.8072 7.04347 54.6607H8.15398V57.1427H8.34895V57.9999H7.94629ZM7.39951 56.785C7.38362 56.9131 7.35501 57.0327 7.31368 57.1427H7.71211V55.0856H7.45779C7.45885 55.9407 7.43872 56.5064 7.39951 56.785Z" fill="#0E2E93"/>
<path d="M10.3981 56.9933V56.3123H10.8315V56.9891C10.8315 57.4118 10.6556 57.6221 10.3038 57.6221H10.2064C9.84396 57.6221 9.66382 57.4161 9.66382 57.004V55.2181C9.66382 55.0505 9.70514 54.9107 9.78886 54.7996C9.87257 54.6886 10.0061 54.632 10.1915 54.632H10.2932C10.4077 54.632 10.5031 54.6491 10.5804 54.6833C10.6567 54.7175 10.7129 54.7676 10.7468 54.8327C10.7807 54.8979 10.8029 54.9619 10.8156 55.0238C10.8273 55.0857 10.8337 55.1583 10.8337 55.2416V55.7647H10.4003V55.2491C10.4003 55.121 10.3505 55.0558 10.2519 55.0558C10.2 55.0558 10.164 55.0708 10.1449 55.1007C10.1258 55.1306 10.1152 55.1797 10.1152 55.248V56.9869C10.1152 57.1204 10.1618 57.1876 10.2562 57.1876C10.3505 57.1898 10.3981 57.1246 10.3981 56.9933Z" fill="#0E2E93"/>
<path d="M11.3755 57.5867V54.6607H12.5273V57.5878H12.0865V55.0856H11.8174V57.5878H11.3755V57.5867Z" fill="#0E2E93"/>
<path d="M14.3034 55.3014V56.9336C14.3034 57.3926 14.1158 57.6221 13.7407 57.6221H13.6665C13.2861 57.6221 13.0964 57.3926 13.0964 56.9336V55.3046C13.0964 54.8562 13.2851 54.632 13.6623 54.632H13.7365C13.9399 54.632 14.0851 54.6897 14.172 54.805C14.2599 54.9213 14.3034 55.0868 14.3034 55.3014ZM13.8541 56.9656V55.2822C13.8541 55.1327 13.8032 55.058 13.7015 55.058C13.5976 55.058 13.5457 55.1327 13.5457 55.2822V56.9656C13.5457 57.115 13.5987 57.1898 13.7057 57.1898C13.8053 57.1898 13.8541 57.115 13.8541 56.9656Z" fill="#0E2E93"/>
<path d="M15.5648 56.3719H15.3063V57.5878H14.8655V54.6607H15.5648C15.7238 54.6607 15.8393 54.6981 15.9103 54.7728C15.9823 54.8475 16.0173 54.9714 16.0173 55.1443V55.8371C16.0173 56.1937 15.8658 56.3719 15.5648 56.3719ZM15.3063 55.0578V55.9513H15.4197C15.4822 55.9513 15.5235 55.9332 15.5426 55.898C15.5617 55.8627 15.5723 55.8094 15.5723 55.7389V55.2585C15.5723 55.1934 15.5617 55.1432 15.5415 55.1091C15.5203 55.0749 15.4801 55.0578 15.4207 55.0578H15.3063Z" fill="#0E2E93"/>
<path d="M16.5063 54.6607H17.6857V55.0856H17.3149V57.5878H16.8772V55.0856H16.5063V54.6607Z" fill="#0E2E93"/>
<path d="M18.9541 57.5867V56.0015L18.6383 57.5867H18.1975V54.6607H18.6383V56.246L18.9541 54.6607H19.3949V57.5878H18.9541V57.5867Z" fill="#0E2E93"/>
<path d="M19.9771 57.5867V54.6607H20.6722C20.8438 54.6607 20.9646 54.7013 21.0335 54.7824C21.1024 54.8636 21.1374 54.9821 21.1374 55.1368V55.5852C21.1374 55.7997 21.0642 55.9353 20.9191 55.9908C21.0886 56.0559 21.1734 56.199 21.1734 56.42V57.053C21.1734 57.2184 21.1352 57.3487 21.0579 57.4448C20.9816 57.5408 20.8629 57.5889 20.705 57.5889H19.9771V57.5867ZM20.5503 55.0578H20.4179V55.8168H20.5503C20.652 55.8168 20.7029 55.7485 20.7029 55.6119V55.2425C20.7029 55.1774 20.6923 55.1294 20.6701 55.1005C20.6478 55.0717 20.6075 55.0578 20.5503 55.0578ZM20.5503 56.2534H20.4179V57.1736H20.5503C20.6181 57.1736 20.6637 57.1576 20.687 57.1266C20.7103 57.0957 20.722 57.0455 20.722 56.9772V56.4424C20.722 56.3773 20.7103 56.3292 20.687 56.2993C20.6637 56.2684 20.6181 56.2534 20.5503 56.2534Z" fill="#0E2E93"/>
<path d="M22.1517 56.3004V57.5867H21.7109V54.6607H22.1517V55.8328H22.4527V54.6607H22.8935V57.5878H22.4527V56.3015H22.1517V56.3004Z" fill="#0E2E93"/>
<path d="M24.6706 55.3014V56.9336C24.6706 57.3926 24.483 57.6221 24.1079 57.6221H24.0337C23.6533 57.6221 23.4636 57.3926 23.4636 56.9336V55.3046C23.4636 54.8562 23.6522 54.632 24.0295 54.632H24.1036C24.3071 54.632 24.4523 54.6897 24.5392 54.805C24.6271 54.9213 24.6706 55.0868 24.6706 55.3014ZM24.2213 56.9656V55.2822C24.2213 55.1327 24.1704 55.058 24.0687 55.058C23.9648 55.058 23.9129 55.1327 23.9129 55.2822V56.9656C23.9129 57.115 23.9659 57.1898 24.0729 57.1898C24.1715 57.1898 24.2213 57.115 24.2213 56.9656Z" fill="#0E2E93"/>
<path d="M25.2058 56.2226H25.7568V56.608H25.2058V56.2226Z" fill="#0E2E93"/>
<path d="M27.0174 56.3719H26.7599V57.5878H26.3191V54.6607H27.0185C27.1774 54.6607 27.2929 54.6981 27.3639 54.7728C27.436 54.8475 27.4709 54.9714 27.4709 55.1443V55.8371C27.4699 56.1937 27.3183 56.3719 27.0174 56.3719ZM26.7588 55.0578V55.9513H26.8722C26.9347 55.9513 26.9761 55.9332 26.9951 55.898C27.0142 55.8627 27.0248 55.8094 27.0248 55.7389V55.2585C27.0248 55.1934 27.0142 55.1432 26.9941 55.1091C26.9729 55.0749 26.9326 55.0578 26.8733 55.0578H26.7588Z" fill="#0E2E93"/>
<path d="M28.7515 57.5868L28.6932 57.036H28.369L28.3139 57.5868H27.9197L28.2747 54.6597H28.7981L29.1764 57.5868H28.7515ZM28.529 55.518L28.4156 56.5994H28.6455L28.529 55.518Z" fill="#0E2E93"/>
<path d="M30.0589 55.2352V55.6995H29.6255V55.2042C29.6255 55.0334 29.6689 54.8957 29.7548 54.7911C29.8406 54.6865 29.9667 54.6342 30.1331 54.6342H30.2231C30.4128 54.6342 30.5495 54.6779 30.6332 54.7644C30.7169 54.8509 30.7582 54.9811 30.7582 55.154V55.6419C30.7582 55.8415 30.6851 55.9707 30.54 56.0315C30.7095 56.0838 30.7943 56.2269 30.7943 56.4606V57.0862C30.7943 57.2378 30.7508 57.3659 30.665 57.4694C30.5792 57.573 30.4446 57.6253 30.2623 57.6253H30.1447C29.9836 57.6253 29.8565 57.574 29.7643 57.4715C29.6721 57.3691 29.6255 57.2527 29.6255 57.1214V56.4798H30.0589V57.0349C30.0589 57.1396 30.1066 57.1919 30.203 57.1919C30.2962 57.1919 30.3439 57.1396 30.3439 57.0349V56.4414C30.3439 56.3475 30.2984 56.2994 30.2072 56.2994H30.008V55.8554H30.2072C30.275 55.8554 30.309 55.7849 30.309 55.6429V55.2373C30.309 55.1188 30.2676 55.0601 30.1839 55.0601C30.1002 55.0579 30.0589 55.1167 30.0589 55.2352Z" fill="#0E2E93"/>
<path d="M31.3513 57.5867V54.6607H32.0464C32.2181 54.6607 32.3389 54.7013 32.4078 54.7824C32.4767 54.8636 32.5116 54.9821 32.5116 55.1368V55.5852C32.5116 55.7997 32.4385 55.9353 32.2933 55.9908C32.4629 56.0559 32.5477 56.199 32.5477 56.42V57.053C32.5477 57.2184 32.5095 57.3487 32.4321 57.4448C32.3559 57.5408 32.2372 57.5889 32.0793 57.5889H31.3513V57.5867ZM31.9256 55.0578H31.7932V55.8168H31.9256C32.0274 55.8168 32.0782 55.7485 32.0782 55.6119V55.2425C32.0782 55.1774 32.0676 55.1294 32.0454 55.1005C32.0221 55.0717 31.9829 55.0578 31.9256 55.0578ZM31.9256 56.2534H31.7932V57.1736H31.9256C31.9935 57.1736 32.039 57.1576 32.0623 57.1266C32.0856 57.0957 32.0973 57.0455 32.0973 56.9772V56.4424C32.0973 56.3773 32.0856 56.3292 32.0623 56.2993C32.038 56.2684 31.9924 56.2534 31.9256 56.2534Z" fill="#0E2E93"/>
<path d="M33.8897 57.5868V55.0846H33.6322C33.6322 56.1307 33.6194 56.8118 33.593 57.1267C33.5824 57.2836 33.5431 57.3999 33.4743 57.4747C33.4054 57.5494 33.291 57.5868 33.1331 57.5868H33.0239V57.1341H33.0547C33.1045 57.1341 33.1384 57.1203 33.1564 57.0904C33.1744 57.0616 33.186 57.0103 33.1913 56.9367C33.2094 56.7605 33.2189 56.0015 33.2189 54.6586H34.3315V57.5857H33.8897V57.5868Z" fill="#0E2E93"/>
<path d="M34.9131 54.6607H35.9166V55.0856H35.3539V55.8531H35.7947V56.2972H35.3539V57.1427H35.9399V57.5867H34.9131V54.6607Z" fill="#0E2E93"/>
<path d="M37.2635 57.5867L36.8969 56.3164V57.5867H36.4561V54.6607H36.8969V55.8328L37.2444 54.6607H37.6736L37.2635 56.0218L37.716 57.5878H37.2635V57.5867Z" fill="#0E2E93"/>
<path d="M38.9302 57.5868L38.8719 57.036H38.5477L38.4926 57.5868H38.0984L38.4534 54.6597H38.9768L39.3551 57.5868H38.9302ZM38.7077 55.518L38.5943 56.5994H38.8242L38.7077 55.518Z" fill="#0E2E93"/>
<path d="M39.5986 54.6607H40.778V55.0856H40.4071V57.5878H39.9695V55.0856H39.5986V54.6607Z" fill="#0E2E93"/>
<path d="M41.2964 54.6607H42.2999V55.0856H41.7372V55.8531H42.178V56.2972H41.7372V57.1427H42.3232V57.5867H41.2964V54.6607Z" fill="#0E2E93"/>
<path d="M43.6436 57.5868V55.0846H43.3861C43.3861 56.1307 43.3733 56.8118 43.3469 57.1267C43.3363 57.2836 43.2971 57.3999 43.2282 57.4747C43.1593 57.5494 43.0449 57.5868 42.887 57.5868H42.7778V57.1341H42.8086C42.8584 57.1341 42.8923 57.1203 42.9103 57.0904C42.9283 57.0616 42.94 57.0103 42.9453 56.9367C42.9633 56.7605 42.9728 56.0015 42.9728 54.6586H44.0854V57.5857H43.6436V57.5868Z" fill="#0E2E93"/>
<path d="M45.1006 55.7933H45.3581C45.6601 55.7933 45.8105 55.9727 45.8105 56.3324V57.0754C45.8105 57.2515 45.7745 57.3807 45.7014 57.4629C45.6283 57.5451 45.5138 57.5867 45.3581 57.5867H44.6587V54.6607H45.0995V55.7933H45.1006ZM45.1006 57.1619H45.2139C45.2733 57.1619 45.3146 57.1448 45.3347 57.1106C45.3559 57.0765 45.3655 57.0263 45.3655 56.9612V56.4306C45.3655 56.3602 45.3559 56.3068 45.3358 56.2716C45.3167 56.2364 45.2754 56.2182 45.2129 56.2182H45.0995V57.1619H45.1006Z" fill="#0E2E93"/>
<path d="M46.7948 56.3004V57.5867H46.354V54.6607H46.7948V55.8328H47.0958V54.6607H47.5366V57.5878H47.0958V56.3015H46.7948V56.3004Z" fill="#0E2E93"/>
<path d="M49.3136 55.3014V56.9336C49.3136 57.3926 49.1261 57.6221 48.7509 57.6221H48.6768C48.2964 57.6221 48.1067 57.3926 48.1067 56.9336V55.3046C48.1067 54.8562 48.2953 54.632 48.6725 54.632H48.7467C48.9502 54.632 49.0953 54.6897 49.1822 54.805C49.2702 54.9213 49.3136 55.0868 49.3136 55.3014ZM48.8643 56.9656V55.2822C48.8643 55.1327 48.8135 55.058 48.7117 55.058C48.6079 55.058 48.556 55.1327 48.556 55.2822V56.9656C48.556 57.115 48.609 57.1898 48.716 57.1898C48.8145 57.1898 48.8643 57.115 48.8643 56.9656Z" fill="#0E2E93"/>
<path d="M49.8677 57.5867V54.6607H50.7535V55.0856H50.3085V57.5878H49.8677V57.5867Z" fill="#0E2E93"/>
<path d="M52.4765 55.3014V56.9336C52.4765 57.3926 52.2889 57.6221 51.9138 57.6221H51.8396C51.4592 57.6221 51.2695 57.3926 51.2695 56.9336V55.3046C51.2695 54.8562 51.4581 54.632 51.8354 54.632H51.9096C52.113 54.632 52.2582 54.6897 52.3451 54.805C52.432 54.9213 52.4765 55.0868 52.4765 55.3014ZM52.0272 56.9656V55.2822C52.0272 55.1327 51.9763 55.058 51.8746 55.058C51.7707 55.058 51.7188 55.1327 51.7188 55.2822V56.9656C51.7188 57.115 51.7718 57.1898 51.8788 57.1898C51.9774 57.1898 52.0272 57.115 52.0272 56.9656Z" fill="#0E2E93"/>
<path d="M55.0419 55.3014V56.9336C55.0419 57.3926 54.8543 57.6221 54.4792 57.6221H54.405C54.0246 57.6221 53.835 57.3926 53.835 56.9336V55.3046C53.835 54.8562 54.0236 54.632 54.4008 54.632H54.475C54.6784 54.632 54.8236 54.6897 54.9105 54.805C54.9974 54.9213 55.0419 55.0868 55.0419 55.3014ZM54.5926 56.9656V55.2822C54.5926 55.1327 54.5417 55.058 54.44 55.058C54.3362 55.058 54.2843 55.1327 54.2843 55.2822V56.9656C54.2843 57.115 54.3372 57.1898 54.4443 57.1898C54.5428 57.1898 54.5926 57.115 54.5926 56.9656Z" fill="#0E2E93"/>
<path d="M55.5959 57.5867V54.6607H56.662V55.0856H56.0368V55.7933H56.2943C56.5963 55.7933 56.7467 55.9727 56.7467 56.3324V57.0754C56.7467 57.2515 56.7107 57.3807 56.6376 57.4629C56.5645 57.5451 56.45 57.5867 56.2943 57.5867H55.5959ZM56.0368 57.1619H56.1501C56.2095 57.1619 56.2508 57.1448 56.2709 57.1106C56.2921 57.0765 56.3017 57.0263 56.3017 56.9612V56.4306C56.3017 56.3602 56.2921 56.3068 56.272 56.2716C56.2529 56.2364 56.2116 56.2182 56.1491 56.2182H56.0357V57.1619H56.0368Z" fill="#0E2E93"/>
<path d="M58.4972 55.3014V56.9336C58.4972 57.3926 58.3097 57.6221 57.9345 57.6221H57.8604C57.48 57.6221 57.2903 57.3926 57.2903 56.9336V55.3046C57.2903 54.8562 57.4789 54.632 57.8561 54.632H57.9303C58.1338 54.632 58.2789 54.6897 58.3658 54.805C58.4527 54.9213 58.4972 55.0868 58.4972 55.3014ZM58.0479 56.9656V55.2822C58.0479 55.1327 57.9971 55.058 57.8953 55.058C57.7915 55.058 57.7396 55.1327 57.7396 55.2822V56.9656C57.7396 57.115 57.7926 57.1898 57.8996 57.1898C57.9981 57.1898 58.0479 57.115 58.0479 56.9656Z" fill="#0E2E93"/>
<path d="M59.7581 56.3719H59.5006V57.5878H59.0598V54.6607H59.7592C59.9181 54.6607 60.0336 54.6981 60.1046 54.7728C60.1767 54.8475 60.2116 54.9714 60.2116 55.1443V55.8371C60.2106 56.1937 60.0601 56.3719 59.7581 56.3719ZM59.5006 55.0578V55.9513H59.614C59.6765 55.9513 59.7179 55.9332 59.7369 55.898C59.756 55.8627 59.7666 55.8094 59.7666 55.7389V55.2585C59.7666 55.1934 59.756 55.1432 59.7359 55.1091C59.7147 55.0749 59.6744 55.0578 59.6151 55.0578H59.5006Z" fill="#0E2E93"/>
<path d="M61.8394 54.6607L61.4176 57.2024C61.3943 57.3465 61.3572 57.4469 61.3085 57.5035C61.2587 57.56 61.1782 57.5878 61.0669 57.5878H60.7819V57.1352H60.8836C60.9069 57.1352 60.926 57.1309 60.9398 57.1234C60.9535 57.116 60.9641 57.1053 60.9694 57.0925C60.9747 57.0797 60.98 57.0626 60.9853 57.0412L60.997 56.9505C61.0044 56.9035 60.9991 56.8245 60.9811 56.7146L60.6526 54.6607H61.1019L61.2661 55.9545L61.4219 54.6607H61.8394Z" fill="#0E2E93"/>
<path d="M63.269 57.9999V57.5867H62.504V57.9999H62.1013V57.1427H62.1988C62.2486 57.0402 62.2846 56.9174 62.3079 56.7733C62.3472 56.5107 62.3662 55.8072 62.3662 54.6607H63.4757V57.1427H63.6706V57.9999H63.269ZM62.7223 56.785C62.7064 56.9131 62.6778 57.0327 62.6364 57.1427H63.0349V55.0856H62.7806C62.7806 55.9407 62.7615 56.5064 62.7223 56.785Z" fill="#0E2E93"/>
<path d="M65.3847 55.3014V56.9336C65.3847 57.3926 65.1971 57.6221 64.822 57.6221H64.7478C64.3674 57.6221 64.1777 57.3926 64.1777 56.9336V55.3046C64.1777 54.8562 64.3663 54.632 64.7436 54.632H64.8178C65.0212 54.632 65.1664 54.6897 65.2533 54.805C65.3412 54.9213 65.3847 55.0868 65.3847 55.3014ZM64.9354 56.9656V55.2822C64.9354 55.1327 64.8845 55.058 64.7828 55.058C64.6789 55.058 64.627 55.1327 64.627 55.2822V56.9656C64.627 57.115 64.68 57.1898 64.787 57.1898C64.8856 57.1898 64.9354 57.115 64.9354 56.9656Z" fill="#0E2E93"/>
<path d="M65.9478 57.5867V54.6607H66.6429C66.8145 54.6607 66.9353 54.7013 67.0042 54.7824C67.0731 54.8636 67.1081 54.9821 67.1081 55.1368V55.5852C67.1081 55.7997 67.0349 55.9353 66.8898 55.9908C67.0593 56.0559 67.1441 56.199 67.1441 56.42V57.053C67.1441 57.2184 67.1059 57.3487 67.0286 57.4448C66.9523 57.5408 66.8336 57.5889 66.6757 57.5889H65.9478V57.5867ZM66.521 55.0578H66.3886V55.8168H66.521C66.6227 55.8168 66.6736 55.7485 66.6736 55.6119V55.2425C66.6736 55.1774 66.663 55.1294 66.6408 55.1005C66.6185 55.0717 66.5782 55.0578 66.521 55.0578ZM66.521 56.2534H66.3886V57.1736H66.521C66.5888 57.1736 66.6344 57.1576 66.6577 57.1266C66.681 57.0957 66.6927 57.0455 66.6927 56.9772V56.4424C66.6927 56.3773 66.681 56.3292 66.6577 56.2993C66.6344 56.2684 66.5888 56.2534 66.521 56.2534Z" fill="#0E2E93"/>
<path d="M68.4275 57.5868L68.3692 57.036H68.045L67.9899 57.5868H67.5957L67.9507 54.6597H68.4741L68.8524 57.5868H68.4275ZM68.2039 55.518L68.0906 56.5994H68.3205L68.2039 55.518Z" fill="#0E2E93"/>
<path d="M69.7658 56.3004V57.5867H69.325V54.6607H69.7658V55.8328H70.0667V54.6607H70.5075V57.5878H70.0667V56.3015H69.7658V56.3004Z" fill="#0E2E93"/>
<path d="M71.8393 57.5867V56.0015L71.5236 57.5867H71.0828V54.6607H71.5236V56.246L71.8393 54.6607H72.2802V57.5878H71.8393V57.5867Z" fill="#0E2E93"/>
<path d="M73.558 56.3602H73.5072L73.1829 57.5878H72.7305L73.0823 56.2823C72.9212 56.2299 72.8407 56.1115 72.8407 55.9278V55.1134C72.8407 54.9511 72.8767 54.8347 72.9498 54.7653C73.0229 54.696 73.1342 54.6607 73.2857 54.6607H73.9999V57.5878H73.5591V56.3602H73.558ZM73.558 55.9353V55.0578H73.4404C73.3758 55.0578 73.3323 55.0728 73.3112 55.1016C73.29 55.1304 73.2804 55.1795 73.2804 55.2468V55.7272C73.2804 55.8659 73.3334 55.9353 73.4404 55.9353H73.558Z" fill="#0E2E93"/>
<path d="M71.9516 37.2256C70.8369 37.2256 69.9309 36.3118 69.9309 35.1899C69.9309 34.0669 70.838 33.1541 71.9516 33.1541C73.0664 33.1541 73.9724 34.0679 73.9724 35.1899C73.9724 36.3129 73.0664 37.2256 71.9516 37.2256ZM71.9516 33.5171C71.0361 33.5171 70.2912 34.2675 70.2912 35.1899C70.2912 36.1122 71.0361 36.8626 71.9516 36.8626C72.8672 36.8626 73.6121 36.1122 73.6121 35.1899C73.6121 34.2675 72.8672 33.5171 71.9516 33.5171Z" fill="#0E2E93"/>
<path d="M72.3748 36.1303L71.9933 35.3457H71.7189V36.1303H71.3374V34.1629H72.1035C72.5009 34.1629 72.7372 34.4362 72.7372 34.765C72.7372 35.0414 72.5698 35.2122 72.3801 35.2816L72.8167 36.1303H72.3748V36.1303ZM72.0792 34.5056H71.7199V35.0254H72.0792C72.2466 35.0254 72.3568 34.9176 72.3568 34.766C72.3557 34.6134 72.2466 34.5056 72.0792 34.5056Z" fill="#0E2E93"/>
<path d="M95.652 16.5V6.7H103.898V16.5H102.876V7.316L103.142 7.596H96.408L96.674 7.316V16.5H95.652ZM110.761 16.57C110.126 16.57 109.552 16.4253 109.039 16.136C108.525 15.8373 108.115 15.4127 107.807 14.862C107.508 14.302 107.359 13.6207 107.359 12.818C107.359 12.0153 107.508 11.3387 107.807 10.788C108.105 10.228 108.511 9.80333 109.025 9.514C109.538 9.22467 110.117 9.08 110.761 9.08C111.461 9.08 112.086 9.23867 112.637 9.556C113.197 9.864 113.635 10.3027 113.953 10.872C114.27 11.432 114.429 12.0807 114.429 12.818C114.429 13.5647 114.27 14.218 113.953 14.778C113.635 15.338 113.197 15.7767 112.637 16.094C112.086 16.4113 111.461 16.57 110.761 16.57ZM106.967 19.216V9.15H107.919V11.362L107.821 12.832L107.961 14.316V19.216H106.967ZM110.691 15.688C111.213 15.688 111.68 15.5713 112.091 15.338C112.501 15.0953 112.828 14.7593 113.071 14.33C113.313 13.8913 113.435 13.3873 113.435 12.818C113.435 12.2487 113.313 11.7493 113.071 11.32C112.828 10.8907 112.501 10.5547 112.091 10.312C111.68 10.0693 111.213 9.948 110.691 9.948C110.168 9.948 109.697 10.0693 109.277 10.312C108.866 10.5547 108.539 10.8907 108.297 11.32C108.063 11.7493 107.947 12.2487 107.947 12.818C107.947 13.3873 108.063 13.8913 108.297 14.33C108.539 14.7593 108.866 15.0953 109.277 15.338C109.697 15.5713 110.168 15.688 110.691 15.688ZM119.588 16.57C118.879 16.57 118.24 16.4113 117.67 16.094C117.11 15.7673 116.667 15.324 116.34 14.764C116.014 14.1947 115.85 13.546 115.85 12.818C115.85 12.0807 116.014 11.432 116.34 10.872C116.667 10.312 117.11 9.87333 117.67 9.556C118.23 9.23867 118.87 9.08 119.588 9.08C120.316 9.08 120.96 9.23867 121.52 9.556C122.09 9.87333 122.533 10.312 122.85 10.872C123.177 11.432 123.34 12.0807 123.34 12.818C123.34 13.546 123.177 14.1947 122.85 14.764C122.533 15.324 122.09 15.7673 121.52 16.094C120.951 16.4113 120.307 16.57 119.588 16.57ZM119.588 15.688C120.12 15.688 120.592 15.5713 121.002 15.338C121.413 15.0953 121.735 14.7593 121.968 14.33C122.211 13.8913 122.332 13.3873 122.332 12.818C122.332 12.2393 122.211 11.7353 121.968 11.306C121.735 10.8767 121.413 10.5453 121.002 10.312C120.592 10.0693 120.125 9.948 119.602 9.948C119.08 9.948 118.613 10.0693 118.202 10.312C117.792 10.5453 117.465 10.8767 117.222 11.306C116.98 11.7353 116.858 12.2393 116.858 12.818C116.858 13.3873 116.98 13.8913 117.222 14.33C117.465 14.7593 117.792 15.0953 118.202 15.338C118.613 15.5713 119.075 15.688 119.588 15.688ZM125.465 16.5V9.15H126.459V14.988L131.373 9.15H132.255V16.5H131.261V10.648L126.361 16.5H125.465ZM136.927 16.584C136.395 16.584 135.868 16.5093 135.345 16.36C134.822 16.2107 134.36 15.982 133.959 15.674L134.281 14.932C134.636 15.1933 135.046 15.394 135.513 15.534C135.98 15.6647 136.442 15.73 136.899 15.73C137.356 15.7207 137.753 15.6553 138.089 15.534C138.425 15.4127 138.686 15.2447 138.873 15.03C139.06 14.8153 139.153 14.5727 139.153 14.302C139.153 13.91 138.976 13.6067 138.621 13.392C138.266 13.168 137.781 13.056 137.165 13.056H135.905V12.328H137.095C137.459 12.328 137.781 12.2813 138.061 12.188C138.341 12.0947 138.556 11.9593 138.705 11.782C138.864 11.6047 138.943 11.3947 138.943 11.152C138.943 10.8907 138.85 10.6667 138.663 10.48C138.486 10.2933 138.238 10.1533 137.921 10.06C137.604 9.96667 137.244 9.92 136.843 9.92C136.479 9.92933 136.101 9.98533 135.709 10.088C135.317 10.1813 134.93 10.326 134.547 10.522L134.267 9.752C134.696 9.528 135.121 9.36 135.541 9.248C135.97 9.12667 136.4 9.066 136.829 9.066C137.417 9.04733 137.944 9.11733 138.411 9.276C138.887 9.43467 139.265 9.66333 139.545 9.962C139.825 10.2513 139.965 10.6013 139.965 11.012C139.965 11.376 139.853 11.6933 139.629 11.964C139.405 12.2347 139.106 12.4447 138.733 12.594C138.36 12.7433 137.935 12.818 137.459 12.818L137.501 12.552C138.341 12.552 138.994 12.7153 139.461 13.042C139.937 13.3687 140.175 13.812 140.175 14.372C140.175 14.8107 140.03 15.198 139.741 15.534C139.452 15.8607 139.06 16.1173 138.565 16.304C138.08 16.4907 137.534 16.584 136.927 16.584ZM142.432 16.5V9.15H145.68C146.51 9.15 147.164 9.30867 147.64 9.626C148.125 9.94333 148.368 10.41 148.368 11.026C148.368 11.6233 148.139 12.0853 147.682 12.412C147.224 12.7293 146.622 12.888 145.876 12.888L146.072 12.594C146.949 12.594 147.593 12.7573 148.004 13.084C148.414 13.4107 148.62 13.882 148.62 14.498C148.62 15.1327 148.386 15.6273 147.92 15.982C147.462 16.3273 146.748 16.5 145.778 16.5H142.432ZM143.398 15.716H145.736C146.361 15.716 146.832 15.618 147.15 15.422C147.476 15.2167 147.64 14.89 147.64 14.442C147.64 13.994 147.495 13.6673 147.206 13.462C146.916 13.2567 146.459 13.154 145.834 13.154H143.398V15.716ZM143.398 12.412H145.61C146.179 12.412 146.613 12.3047 146.912 12.09C147.22 11.8753 147.374 11.5627 147.374 11.152C147.374 10.7413 147.22 10.4333 146.912 10.228C146.613 10.0227 146.179 9.92 145.61 9.92H143.398V12.412ZM153.973 16.57C153.264 16.57 152.624 16.4113 152.055 16.094C151.495 15.7673 151.052 15.324 150.725 14.764C150.398 14.1947 150.235 13.546 150.235 12.818C150.235 12.0807 150.398 11.432 150.725 10.872C151.052 10.312 151.495 9.87333 152.055 9.556C152.615 9.23867 153.254 9.08 153.973 9.08C154.701 9.08 155.345 9.23867 155.905 9.556C156.474 9.87333 156.918 10.312 157.235 10.872C157.562 11.432 157.725 12.0807 157.725 12.818C157.725 13.546 157.562 14.1947 157.235 14.764C156.918 15.324 156.474 15.7673 155.905 16.094C155.336 16.4113 154.692 16.57 153.973 16.57ZM153.973 15.688C154.505 15.688 154.976 15.5713 155.387 15.338C155.798 15.0953 156.12 14.7593 156.353 14.33C156.596 13.8913 156.717 13.3873 156.717 12.818C156.717 12.2393 156.596 11.7353 156.353 11.306C156.12 10.8767 155.798 10.5453 155.387 10.312C154.976 10.0693 154.51 9.948 153.987 9.948C153.464 9.948 152.998 10.0693 152.587 10.312C152.176 10.5453 151.85 10.8767 151.607 11.306C151.364 11.7353 151.243 12.2393 151.243 12.818C151.243 13.3873 151.364 13.8913 151.607 14.33C151.85 14.7593 152.176 15.0953 152.587 15.338C152.998 15.5713 153.46 15.688 153.973 15.688ZM164.849 16.024V10.018H161.307L161.223 11.656C161.204 12.1507 161.171 12.636 161.125 13.112C161.087 13.588 161.017 14.0267 160.915 14.428C160.821 14.82 160.686 15.142 160.509 15.394C160.331 15.6367 160.103 15.7767 159.823 15.814L158.829 15.632C159.118 15.6413 159.356 15.5387 159.543 15.324C159.729 15.1 159.874 14.7967 159.977 14.414C160.079 14.0313 160.154 13.5973 160.201 13.112C160.247 12.6173 160.285 12.1133 160.313 11.6L160.411 9.15H165.843V16.024H164.849ZM158.521 18.278V15.632H166.991V18.278H166.053V16.5H159.459V18.278H158.521ZM168.928 16.5V9.15H169.922V14.988L174.836 9.15H175.718V16.5H174.724V10.648L169.824 16.5H168.928ZM179.966 16.5V9.752L180.218 10.018H177.18V9.15H183.746V10.018H180.708L180.96 9.752V16.5H179.966ZM187.992 16.57C187.226 16.57 186.554 16.4113 185.976 16.094C185.397 15.7673 184.944 15.324 184.618 14.764C184.291 14.1947 184.128 13.546 184.128 12.818C184.128 12.09 184.282 11.446 184.59 10.886C184.907 10.326 185.336 9.88733 185.878 9.57C186.428 9.24333 187.044 9.08 187.726 9.08C188.416 9.08 189.028 9.23867 189.56 9.556C190.101 9.864 190.526 10.3027 190.834 10.872C191.142 11.432 191.296 12.0807 191.296 12.818C191.296 12.8647 191.291 12.916 191.282 12.972C191.282 13.0187 191.282 13.07 191.282 13.126H184.884V12.384H190.75L190.358 12.678C190.358 12.146 190.241 11.6747 190.008 11.264C189.784 10.844 189.476 10.5173 189.084 10.284C188.692 10.0507 188.239 9.934 187.726 9.934C187.222 9.934 186.769 10.0507 186.368 10.284C185.966 10.5173 185.654 10.844 185.43 11.264C185.206 11.684 185.094 12.1647 185.094 12.706V12.86C185.094 13.42 185.215 13.9147 185.458 14.344C185.71 14.764 186.055 15.0953 186.494 15.338C186.942 15.5713 187.45 15.688 188.02 15.688C188.468 15.688 188.883 15.6087 189.266 15.45C189.658 15.2913 189.994 15.0487 190.274 14.722L190.834 15.366C190.507 15.758 190.096 16.0567 189.602 16.262C189.116 16.4673 188.58 16.57 187.992 16.57ZM192.002 16.486L192.072 15.632C192.137 15.6413 192.198 15.6553 192.254 15.674C192.319 15.6833 192.375 15.688 192.422 15.688C192.72 15.688 192.958 15.576 193.136 15.352C193.322 15.128 193.462 14.8293 193.556 14.456C193.649 14.0827 193.714 13.6627 193.752 13.196C193.789 12.72 193.822 12.244 193.85 11.768L193.976 9.15H199.366V16.5H198.372V9.724L198.624 10.018H194.62L194.858 9.71L194.746 11.838C194.718 12.4727 194.666 13.0793 194.592 13.658C194.526 14.2367 194.419 14.7453 194.27 15.184C194.13 15.6227 193.934 15.968 193.682 16.22C193.43 16.4627 193.108 16.584 192.716 16.584C192.604 16.584 192.487 16.5747 192.366 16.556C192.254 16.5373 192.132 16.514 192.002 16.486ZM205.355 11.74C206.279 11.7493 206.979 11.9547 207.455 12.356C207.941 12.7573 208.183 13.336 208.183 14.092C208.183 14.876 207.922 15.478 207.399 15.898C206.886 16.318 206.139 16.5233 205.159 16.514L202.191 16.5V9.15H203.185V11.712L205.355 11.74ZM205.103 15.758C205.785 15.7673 206.298 15.632 206.643 15.352C206.998 15.0627 207.175 14.6427 207.175 14.092C207.175 13.5413 207.003 13.14 206.657 12.888C206.312 12.6267 205.794 12.4913 205.103 12.482L203.185 12.454V15.73L205.103 15.758ZM95.414 34.5V27.15H96.408V32.988L101.322 27.15H102.204V34.5H101.21V28.648L96.31 34.5H95.414ZM105.053 34.5V27.15H110.261V28.018H105.795L106.047 27.766V34.5H105.053ZM115.491 34.57C114.857 34.57 114.283 34.4253 113.769 34.136C113.256 33.8373 112.845 33.4127 112.537 32.862C112.239 32.302 112.089 31.6207 112.089 30.818C112.089 30.0153 112.239 29.3387 112.537 28.788C112.836 28.228 113.242 27.8033 113.755 27.514C114.269 27.2247 114.847 27.08 115.491 27.08C116.191 27.08 116.817 27.2387 117.367 27.556C117.927 27.864 118.366 28.3027 118.683 28.872C119.001 29.432 119.159 30.0807 119.159 30.818C119.159 31.5647 119.001 32.218 118.683 32.778C118.366 33.338 117.927 33.7767 117.367 34.094C116.817 34.4113 116.191 34.57 115.491 34.57ZM111.697 37.216V27.15H112.649V29.362L112.551 30.832L112.691 32.316V37.216H111.697ZM115.421 33.688C115.944 33.688 116.411 33.5713 116.821 33.338C117.232 33.0953 117.559 32.7593 117.801 32.33C118.044 31.8913 118.165 31.3873 118.165 30.818C118.165 30.2487 118.044 29.7493 117.801 29.32C117.559 28.8907 117.232 28.5547 116.821 28.312C116.411 28.0693 115.944 27.948 115.421 27.948C114.899 27.948 114.427 28.0693 114.007 28.312C113.597 28.5547 113.27 28.8907 113.027 29.32C112.794 29.7493 112.677 30.2487 112.677 30.818C112.677 31.3873 112.794 31.8913 113.027 32.33C113.27 32.7593 113.597 33.0953 114.007 33.338C114.427 33.5713 114.899 33.688 115.421 33.688ZM124.319 34.57C123.61 34.57 122.97 34.4113 122.401 34.094C121.841 33.7673 121.398 33.324 121.071 32.764C120.744 32.1947 120.581 31.546 120.581 30.818C120.581 30.0807 120.744 29.432 121.071 28.872C121.398 28.312 121.841 27.8733 122.401 27.556C122.961 27.2387 123.6 27.08 124.319 27.08C125.047 27.08 125.691 27.2387 126.251 27.556C126.82 27.8733 127.264 28.312 127.581 28.872C127.908 29.432 128.071 30.0807 128.071 30.818C128.071 31.546 127.908 32.1947 127.581 32.764C127.264 33.324 126.82 33.7673 126.251 34.094C125.682 34.4113 125.038 34.57 124.319 34.57ZM124.319 33.688C124.851 33.688 125.322 33.5713 125.733 33.338C126.144 33.0953 126.466 32.7593 126.699 32.33C126.942 31.8913 127.063 31.3873 127.063 30.818C127.063 30.2393 126.942 29.7353 126.699 29.306C126.466 28.8767 126.144 28.5453 125.733 28.312C125.322 28.0693 124.856 27.948 124.333 27.948C123.81 27.948 123.344 28.0693 122.933 28.312C122.522 28.5453 122.196 28.8767 121.953 29.306C121.71 29.7353 121.589 30.2393 121.589 30.818C121.589 31.3873 121.71 31.8913 121.953 32.33C122.196 32.7593 122.522 33.0953 122.933 33.338C123.344 33.5713 123.806 33.688 124.319 33.688ZM130.195 34.5V27.15H133.443C134.274 27.15 134.927 27.3087 135.403 27.626C135.889 27.9433 136.131 28.41 136.131 29.026C136.131 29.6233 135.903 30.0853 135.445 30.412C134.988 30.7293 134.386 30.888 133.639 30.888L133.835 30.594C134.713 30.594 135.357 30.7573 135.767 31.084C136.178 31.4107 136.383 31.882 136.383 32.498C136.383 33.1327 136.15 33.6273 135.683 33.982C135.226 34.3273 134.512 34.5 133.541 34.5H130.195ZM131.161 33.716H133.499C134.125 33.716 134.596 33.618 134.913 33.422C135.24 33.2167 135.403 32.89 135.403 32.442C135.403 31.994 135.259 31.6673 134.969 31.462C134.68 31.2567 134.223 31.154 133.597 31.154H131.161V33.716ZM131.161 30.412H133.373C133.943 30.412 134.377 30.3047 134.675 30.09C134.983 29.8753 135.137 29.5627 135.137 29.152C135.137 28.7413 134.983 28.4333 134.675 28.228C134.377 28.0227 133.943 27.92 133.373 27.92H131.161V30.412ZM141.737 34.57C141.027 34.57 140.388 34.4113 139.819 34.094C139.259 33.7673 138.815 33.324 138.489 32.764C138.162 32.1947 137.999 31.546 137.999 30.818C137.999 30.0807 138.162 29.432 138.489 28.872C138.815 28.312 139.259 27.8733 139.819 27.556C140.379 27.2387 141.018 27.08 141.737 27.08C142.465 27.08 143.109 27.2387 143.669 27.556C144.238 27.8733 144.681 28.312 144.999 28.872C145.325 29.432 145.489 30.0807 145.489 30.818C145.489 31.546 145.325 32.1947 144.999 32.764C144.681 33.324 144.238 33.7673 143.669 34.094C143.099 34.4113 142.455 34.57 141.737 34.57ZM141.737 33.688C142.269 33.688 142.74 33.5713 143.151 33.338C143.561 33.0953 143.883 32.7593 144.117 32.33C144.359 31.8913 144.481 31.3873 144.481 30.818C144.481 30.2393 144.359 29.7353 144.117 29.306C143.883 28.8767 143.561 28.5453 143.151 28.312C142.74 28.0693 142.273 27.948 141.751 27.948C141.228 27.948 140.761 28.0693 140.351 28.312C139.94 28.5453 139.613 28.8767 139.371 29.306C139.128 29.7353 139.007 30.2393 139.007 30.818C139.007 31.3873 139.128 31.8913 139.371 32.33C139.613 32.7593 139.94 33.0953 140.351 33.338C140.761 33.5713 141.223 33.688 141.737 33.688ZM147.613 34.5V27.15H152.821V28.018H148.355L148.607 27.766V34.5H147.613ZM156.94 34.57C156.231 34.57 155.591 34.4113 155.022 34.094C154.462 33.7673 154.019 33.324 153.692 32.764C153.365 32.1947 153.202 31.546 153.202 30.818C153.202 30.0807 153.365 29.432 153.692 28.872C154.019 28.312 154.462 27.8733 155.022 27.556C155.582 27.2387 156.221 27.08 156.94 27.08C157.668 27.08 158.312 27.2387 158.872 27.556C159.441 27.8733 159.885 28.312 160.202 28.872C160.529 29.432 160.692 30.0807 160.692 30.818C160.692 31.546 160.529 32.1947 160.202 32.764C159.885 33.324 159.441 33.7673 158.872 34.094C158.303 34.4113 157.659 34.57 156.94 34.57ZM156.94 33.688C157.472 33.688 157.943 33.5713 158.354 33.338C158.765 33.0953 159.087 32.7593 159.32 32.33C159.563 31.8913 159.684 31.3873 159.684 30.818C159.684 30.2393 159.563 29.7353 159.32 29.306C159.087 28.8767 158.765 28.5453 158.354 28.312C157.943 28.0693 157.477 27.948 156.954 27.948C156.431 27.948 155.965 28.0693 155.554 28.312C155.143 28.5453 154.817 28.8767 154.574 29.306C154.331 29.7353 154.21 30.2393 154.21 30.818C154.21 31.3873 154.331 31.8913 154.574 32.33C154.817 32.7593 155.143 33.0953 155.554 33.338C155.965 33.5713 156.427 33.688 156.94 33.688ZM169.504 34.57C168.795 34.57 168.156 34.4113 167.586 34.094C167.026 33.7673 166.583 33.324 166.256 32.764C165.93 32.1947 165.766 31.546 165.766 30.818C165.766 30.0807 165.93 29.432 166.256 28.872C166.583 28.312 167.026 27.8733 167.586 27.556C168.146 27.2387 168.786 27.08 169.504 27.08C170.232 27.08 170.876 27.2387 171.436 27.556C172.006 27.8733 172.449 28.312 172.766 28.872C173.093 29.432 173.256 30.0807 173.256 30.818C173.256 31.546 173.093 32.1947 172.766 32.764C172.449 33.324 172.006 33.7673 171.436 34.094C170.867 34.4113 170.223 34.57 169.504 34.57ZM169.504 33.688C170.036 33.688 170.508 33.5713 170.918 33.338C171.329 33.0953 171.651 32.7593 171.884 32.33C172.127 31.8913 172.248 31.3873 172.248 30.818C172.248 30.2393 172.127 29.7353 171.884 29.306C171.651 28.8767 171.329 28.5453 170.918 28.312C170.508 28.0693 170.041 27.948 169.518 27.948C168.996 27.948 168.529 28.0693 168.118 28.312C167.708 28.5453 167.381 28.8767 167.138 29.306C166.896 29.7353 166.774 30.2393 166.774 30.818C166.774 31.3873 166.896 31.8913 167.138 32.33C167.381 32.7593 167.708 33.0953 168.118 33.338C168.529 33.5713 168.991 33.688 169.504 33.688ZM178.685 34.584C178.087 34.584 177.555 34.486 177.089 34.29C176.631 34.094 176.239 33.7953 175.913 33.394C175.586 32.9927 175.339 32.498 175.171 31.91C175.003 31.3127 174.919 30.622 174.919 29.838C174.919 29.138 174.984 28.5267 175.115 28.004C175.245 27.472 175.427 27.0147 175.661 26.632C175.894 26.2493 176.165 25.9273 176.473 25.666C176.79 25.3953 177.131 25.1807 177.495 25.022C177.868 24.854 178.251 24.728 178.643 24.644L181.947 23.874L182.115 24.798L179.007 25.498C178.811 25.5447 178.573 25.61 178.293 25.694C178.022 25.778 177.742 25.904 177.453 26.072C177.173 26.24 176.911 26.4733 176.669 26.772C176.426 27.0707 176.23 27.458 176.081 27.934C175.941 28.4007 175.871 28.984 175.871 29.684C175.871 29.8333 175.875 29.9547 175.885 30.048C175.894 30.132 175.903 30.2253 175.913 30.328C175.931 30.4213 175.945 30.5613 175.955 30.748L175.521 30.384C175.623 29.8147 175.833 29.32 176.151 28.9C176.468 28.4707 176.865 28.1393 177.341 27.906C177.826 27.6633 178.363 27.542 178.951 27.542C179.632 27.542 180.239 27.6913 180.771 27.99C181.303 28.2793 181.718 28.6853 182.017 29.208C182.325 29.7307 182.479 30.3373 182.479 31.028C182.479 31.7093 182.32 32.3207 182.003 32.862C181.695 33.4033 181.256 33.828 180.687 34.136C180.117 34.4347 179.45 34.584 178.685 34.584ZM178.797 33.758C179.319 33.758 179.781 33.6413 180.183 33.408C180.584 33.1653 180.897 32.8387 181.121 32.428C181.354 32.0173 181.471 31.5553 181.471 31.042C181.471 30.538 181.354 30.09 181.121 29.698C180.897 29.306 180.584 28.998 180.183 28.774C179.781 28.5407 179.315 28.424 178.783 28.424C178.26 28.424 177.798 28.536 177.397 28.76C176.995 28.9747 176.678 29.278 176.445 29.67C176.221 30.062 176.109 30.5147 176.109 31.028C176.109 31.5413 176.221 32.0033 176.445 32.414C176.678 32.8247 176.995 33.1513 177.397 33.394C177.807 33.6367 178.274 33.758 178.797 33.758ZM187.633 34.57C186.924 34.57 186.285 34.4113 185.715 34.094C185.155 33.7673 184.712 33.324 184.385 32.764C184.059 32.1947 183.895 31.546 183.895 30.818C183.895 30.0807 184.059 29.432 184.385 28.872C184.712 28.312 185.155 27.8733 185.715 27.556C186.275 27.2387 186.915 27.08 187.633 27.08C188.361 27.08 189.005 27.2387 189.565 27.556C190.135 27.8733 190.578 28.312 190.895 28.872C191.222 29.432 191.385 30.0807 191.385 30.818C191.385 31.546 191.222 32.1947 190.895 32.764C190.578 33.324 190.135 33.7673 189.565 34.094C188.996 34.4113 188.352 34.57 187.633 34.57ZM187.633 33.688C188.165 33.688 188.637 33.5713 189.047 33.338C189.458 33.0953 189.78 32.7593 190.013 32.33C190.256 31.8913 190.377 31.3873 190.377 30.818C190.377 30.2393 190.256 29.7353 190.013 29.306C189.78 28.8767 189.458 28.5453 189.047 28.312C188.637 28.0693 188.17 27.948 187.647 27.948C187.125 27.948 186.658 28.0693 186.247 28.312C185.837 28.5453 185.51 28.8767 185.267 29.306C185.025 29.7353 184.903 30.2393 184.903 30.818C184.903 31.3873 185.025 31.8913 185.267 32.33C185.51 32.7593 185.837 33.0953 186.247 33.338C186.658 33.5713 187.12 33.688 187.633 33.688ZM197.304 34.57C196.669 34.57 196.095 34.4253 195.582 34.136C195.068 33.8373 194.658 33.4127 194.35 32.862C194.051 32.302 193.902 31.6207 193.902 30.818C193.902 30.0153 194.051 29.3387 194.35 28.788C194.648 28.228 195.054 27.8033 195.568 27.514C196.081 27.2247 196.66 27.08 197.304 27.08C198.004 27.08 198.629 27.2387 199.18 27.556C199.74 27.864 200.178 28.3027 200.496 28.872C200.813 29.432 200.972 30.0807 200.972 30.818C200.972 31.5647 200.813 32.218 200.496 32.778C200.178 33.338 199.74 33.7767 199.18 34.094C198.629 34.4113 198.004 34.57 197.304 34.57ZM193.51 37.216V27.15H194.462V29.362L194.364 30.832L194.504 32.316V37.216H193.51ZM197.234 33.688C197.756 33.688 198.223 33.5713 198.634 33.338C199.044 33.0953 199.371 32.7593 199.614 32.33C199.856 31.8913 199.978 31.3873 199.978 30.818C199.978 30.2487 199.856 29.7493 199.614 29.32C199.371 28.8907 199.044 28.5547 198.634 28.312C198.223 28.0693 197.756 27.948 197.234 27.948C196.711 27.948 196.24 28.0693 195.82 28.312C195.409 28.5547 195.082 28.8907 194.84 29.32C194.606 29.7493 194.49 30.2487 194.49 30.818C194.49 31.3873 194.606 31.8913 194.84 32.33C195.082 32.7593 195.409 33.0953 195.82 33.338C196.24 33.5713 196.711 33.688 197.234 33.688ZM203.028 37.286C202.683 37.286 202.352 37.23 202.034 37.118C201.726 37.006 201.46 36.838 201.236 36.614L201.698 35.872C201.885 36.0493 202.086 36.1847 202.3 36.278C202.524 36.3807 202.772 36.432 203.042 36.432C203.369 36.432 203.649 36.3387 203.882 36.152C204.125 35.9747 204.354 35.6573 204.568 35.2L205.044 34.122L205.156 33.968L208.18 27.15H209.16L205.478 35.382C205.273 35.858 205.044 36.236 204.792 36.516C204.55 36.796 204.284 36.992 203.994 37.104C203.705 37.2253 203.383 37.286 203.028 37.286ZM204.988 34.71L201.6 27.15H202.636L205.632 33.898L204.988 34.71ZM215.434 34.024V28.018H211.892L211.808 29.656C211.79 30.1507 211.757 30.636 211.71 31.112C211.673 31.588 211.603 32.0267 211.5 32.428C211.407 32.82 211.272 33.142 211.094 33.394C210.917 33.6367 210.688 33.7767 210.408 33.814L209.414 33.632C209.704 33.6413 209.942 33.5387 210.128 33.324C210.315 33.1 210.46 32.7967 210.562 32.414C210.665 32.0313 210.74 31.5973 210.786 31.112C210.833 30.6173 210.87 30.1133 210.898 29.6L210.996 27.15H216.428V34.024H215.434ZM209.106 36.278V33.632H217.576V36.278H216.638V34.5H210.044V36.278H209.106ZM222.538 34.57C221.828 34.57 221.189 34.4113 220.62 34.094C220.06 33.7673 219.616 33.324 219.29 32.764C218.963 32.1947 218.8 31.546 218.8 30.818C218.8 30.0807 218.963 29.432 219.29 28.872C219.616 28.312 220.06 27.8733 220.62 27.556C221.18 27.2387 221.819 27.08 222.538 27.08C223.266 27.08 223.91 27.2387 224.47 27.556C225.039 27.8733 225.482 28.312 225.8 28.872C226.126 29.432 226.29 30.0807 226.29 30.818C226.29 31.546 226.126 32.1947 225.8 32.764C225.482 33.324 225.039 33.7673 224.47 34.094C223.9 34.4113 223.256 34.57 222.538 34.57ZM222.538 33.688C223.07 33.688 223.541 33.5713 223.952 33.338C224.362 33.0953 224.684 32.7593 224.918 32.33C225.16 31.8913 225.282 31.3873 225.282 30.818C225.282 30.2393 225.16 29.7353 224.918 29.306C224.684 28.8767 224.362 28.5453 223.952 28.312C223.541 28.0693 223.074 27.948 222.552 27.948C222.029 27.948 221.562 28.0693 221.152 28.312C220.741 28.5453 220.414 28.8767 220.172 29.306C219.929 29.7353 219.808 30.2393 219.808 30.818C219.808 31.3873 219.929 31.8913 220.172 32.33C220.414 32.7593 220.741 33.0953 221.152 33.338C221.562 33.5713 222.024 33.688 222.538 33.688ZM228.414 34.5V27.15H231.662C232.493 27.15 233.146 27.3087 233.622 27.626C234.107 27.9433 234.35 28.41 234.35 29.026C234.35 29.6233 234.121 30.0853 233.664 30.412C233.207 30.7293 232.605 30.888 231.858 30.888L232.054 30.594C232.931 30.594 233.575 30.7573 233.986 31.084C234.397 31.4107 234.602 31.882 234.602 32.498C234.602 33.1327 234.369 33.6273 233.902 33.982C233.445 34.3273 232.731 34.5 231.76 34.5H228.414ZM229.38 33.716H231.718C232.343 33.716 232.815 33.618 233.132 33.422C233.459 33.2167 233.622 32.89 233.622 32.442C233.622 31.994 233.477 31.6673 233.188 31.462C232.899 31.2567 232.441 31.154 231.816 31.154H229.38V33.716ZM229.38 30.412H231.592C232.161 30.412 232.595 30.3047 232.894 30.09C233.202 29.8753 233.356 29.5627 233.356 29.152C233.356 28.7413 233.202 28.4333 232.894 28.228C232.595 28.0227 232.161 27.92 231.592 27.92H229.38V30.412ZM241.496 34.5V32.876L241.454 32.61V29.894C241.454 29.2687 241.276 28.788 240.922 28.452C240.576 28.116 240.058 27.948 239.368 27.948C238.892 27.948 238.439 28.0273 238.01 28.186C237.58 28.3447 237.216 28.5547 236.918 28.816L236.47 28.074C236.843 27.7567 237.291 27.514 237.814 27.346C238.336 27.1687 238.887 27.08 239.466 27.08C240.418 27.08 241.15 27.318 241.664 27.794C242.186 28.2607 242.448 28.9747 242.448 29.936V34.5H241.496ZM238.962 34.57C238.411 34.57 237.93 34.4813 237.52 34.304C237.118 34.1173 236.81 33.8653 236.596 33.548C236.381 33.2213 236.274 32.848 236.274 32.428C236.274 32.0453 236.362 31.7 236.54 31.392C236.726 31.0747 237.025 30.8227 237.436 30.636C237.856 30.44 238.416 30.342 239.116 30.342H241.65V31.084H239.144C238.434 31.084 237.94 31.21 237.66 31.462C237.389 31.714 237.254 32.0267 237.254 32.4C237.254 32.82 237.417 33.156 237.744 33.408C238.07 33.66 238.528 33.786 239.116 33.786C239.676 33.786 240.156 33.66 240.558 33.408C240.968 33.1467 241.267 32.7733 241.454 32.288L241.678 32.974C241.491 33.4593 241.164 33.8467 240.698 34.136C240.24 34.4253 239.662 34.57 238.962 34.57ZM245.094 34.5V27.15H246.088V30.398H250.722V27.15H251.716V34.5H250.722V31.252H246.088V34.5H245.094ZM254.541 34.5V27.15H255.535V32.988L260.449 27.15H261.331V34.5H260.337V28.648L255.437 34.5H254.541ZM268.926 34.5V31.854L269.108 32.064H266.616C265.673 32.064 264.936 31.8587 264.404 31.448C263.872 31.0373 263.606 30.44 263.606 29.656C263.606 28.816 263.89 28.1907 264.46 27.78C265.029 27.36 265.79 27.15 266.742 27.15H269.836V34.5H268.926ZM263.55 34.5L265.566 31.672H266.602L264.628 34.5H263.55ZM268.926 31.56V27.724L269.108 28.018H266.77C266.088 28.018 265.556 28.1487 265.174 28.41C264.8 28.6713 264.614 29.096 264.614 29.684C264.614 30.776 265.309 31.322 266.7 31.322H269.108L268.926 31.56ZM95.414 52.5V45.15H96.408V50.988L101.322 45.15H102.204V52.5H101.21V46.648L96.31 52.5H95.414ZM113.281 52.5V50.876L113.239 50.61V47.894C113.239 47.2687 113.061 46.788 112.707 46.452C112.361 46.116 111.843 45.948 111.153 45.948C110.677 45.948 110.224 46.0273 109.795 46.186C109.365 46.3447 109.001 46.5547 108.703 46.816L108.255 46.074C108.628 45.7567 109.076 45.514 109.599 45.346C110.121 45.1687 110.672 45.08 111.251 45.08C112.203 45.08 112.935 45.318 113.449 45.794C113.971 46.2607 114.233 46.9747 114.233 47.936V52.5H113.281ZM110.747 52.57C110.196 52.57 109.715 52.4813 109.305 52.304C108.903 52.1173 108.595 51.8653 108.381 51.548C108.166 51.2213 108.059 50.848 108.059 50.428C108.059 50.0453 108.147 49.7 108.325 49.392C108.511 49.0747 108.81 48.8227 109.221 48.636C109.641 48.44 110.201 48.342 110.901 48.342H113.435V49.084H110.929C110.219 49.084 109.725 49.21 109.445 49.462C109.174 49.714 109.039 50.0267 109.039 50.4C109.039 50.82 109.202 51.156 109.529 51.408C109.855 51.66 110.313 51.786 110.901 51.786C111.461 51.786 111.941 51.66 112.343 51.408C112.753 51.1467 113.052 50.7733 113.239 50.288L113.463 50.974C113.276 51.4593 112.949 51.8467 112.483 52.136C112.025 52.4253 111.447 52.57 110.747 52.57ZM118.279 52.5V45.752L118.531 46.018H115.493V45.15H122.059V46.018H119.021L119.273 45.752V52.5H118.279ZM125.06 52.5V45.752L125.312 46.018H122.274V45.15H128.84V46.018H125.802L126.054 45.752V52.5H125.06ZM134.071 52.57C133.437 52.57 132.863 52.4253 132.349 52.136C131.836 51.8373 131.425 51.4127 131.117 50.862C130.819 50.302 130.669 49.6207 130.669 48.818C130.669 48.0153 130.819 47.3387 131.117 46.788C131.416 46.228 131.822 45.8033 132.335 45.514C132.849 45.2247 133.427 45.08 134.071 45.08C134.771 45.08 135.397 45.2387 135.947 45.556C136.507 45.864 136.946 46.3027 137.263 46.872C137.581 47.432 137.739 48.0807 137.739 48.818C137.739 49.5647 137.581 50.218 137.263 50.778C136.946 51.338 136.507 51.7767 135.947 52.094C135.397 52.4113 134.771 52.57 134.071 52.57ZM130.277 55.216V45.15H131.229V47.362L131.131 48.832L131.271 50.316V55.216H130.277ZM134.001 51.688C134.524 51.688 134.991 51.5713 135.401 51.338C135.812 51.0953 136.139 50.7593 136.381 50.33C136.624 49.8913 136.745 49.3873 136.745 48.818C136.745 48.2487 136.624 47.7493 136.381 47.32C136.139 46.8907 135.812 46.5547 135.401 46.312C134.991 46.0693 134.524 45.948 134.001 45.948C133.479 45.948 133.007 46.0693 132.587 46.312C132.177 46.5547 131.85 46.8907 131.607 47.32C131.374 47.7493 131.257 48.2487 131.257 48.818C131.257 49.3873 131.374 49.8913 131.607 50.33C131.85 50.7593 132.177 51.0953 132.587 51.338C133.007 51.5713 133.479 51.688 134.001 51.688ZM144.398 52.5V50.876L144.356 50.61V47.894C144.356 47.2687 144.179 46.788 143.824 46.452C143.479 46.116 142.961 45.948 142.27 45.948C141.794 45.948 141.341 46.0273 140.912 46.186C140.483 46.3447 140.119 46.5547 139.82 46.816L139.372 46.074C139.745 45.7567 140.193 45.514 140.716 45.346C141.239 45.1687 141.789 45.08 142.368 45.08C143.32 45.08 144.053 45.318 144.566 45.794C145.089 46.2607 145.35 46.9747 145.35 47.936V52.5H144.398ZM141.864 52.57C141.313 52.57 140.833 52.4813 140.422 52.304C140.021 52.1173 139.713 51.8653 139.498 51.548C139.283 51.2213 139.176 50.848 139.176 50.428C139.176 50.0453 139.265 49.7 139.442 49.392C139.629 49.0747 139.927 48.8227 140.338 48.636C140.758 48.44 141.318 48.342 142.018 48.342H144.552V49.084H142.046C141.337 49.084 140.842 49.21 140.562 49.462C140.291 49.714 140.156 50.0267 140.156 50.4C140.156 50.82 140.319 51.156 140.646 51.408C140.973 51.66 141.43 51.786 142.018 51.786C142.578 51.786 143.059 51.66 143.46 51.408C143.871 51.1467 144.169 50.7733 144.356 50.288L144.58 50.974C144.393 51.4593 144.067 51.8467 143.6 52.136C143.143 52.4253 142.564 52.57 141.864 52.57ZM153.386 52.5L150.362 48.86L151.188 48.37L154.562 52.5H153.386ZM147.996 52.5V45.15H148.99V52.5H147.996ZM148.682 49.224V48.37H151.048V49.224H148.682ZM151.272 48.93L150.348 48.79L153.274 45.15H154.352L151.272 48.93ZM156.131 52.5V45.15H157.125V51.632H161.619V45.15H162.613V52.5H156.131ZM162.865 54.278V52.416L163.117 52.5H161.619V51.632H163.803V54.278H162.865ZM165.701 52.5V45.15H166.695V50.988L171.609 45.15H172.491V52.5H171.497V46.648L166.597 52.5H165.701ZM178.364 52.57C177.654 52.57 177.015 52.4113 176.446 52.094C175.886 51.7673 175.442 51.324 175.116 50.764C174.789 50.1947 174.626 49.546 174.626 48.818C174.626 48.0807 174.789 47.432 175.116 46.872C175.442 46.312 175.886 45.8733 176.446 45.556C177.006 45.2387 177.645 45.08 178.364 45.08C179.092 45.08 179.736 45.2387 180.296 45.556C180.865 45.8733 181.308 46.312 181.626 46.872C181.952 47.432 182.116 48.0807 182.116 48.818C182.116 49.546 181.952 50.1947 181.626 50.764C181.308 51.324 180.865 51.7673 180.296 52.094C179.726 52.4113 179.082 52.57 178.364 52.57ZM178.364 51.688C178.896 51.688 179.367 51.5713 179.778 51.338C180.188 51.0953 180.51 50.7593 180.744 50.33C180.986 49.8913 181.108 49.3873 181.108 48.818C181.108 48.2393 180.986 47.7353 180.744 47.306C180.51 46.8767 180.188 46.5453 179.778 46.312C179.367 46.0693 178.9 45.948 178.378 45.948C177.855 45.948 177.388 46.0693 176.978 46.312C176.567 46.5453 176.24 46.8767 175.998 47.306C175.755 47.7353 175.634 48.2393 175.634 48.818C175.634 49.3873 175.755 49.8913 175.998 50.33C176.24 50.7593 176.567 51.0953 176.978 51.338C177.388 51.5713 177.85 51.688 178.364 51.688ZM184.24 52.5V45.15H185.234V48.398H189.868V45.15H190.862V52.5H189.868V49.252H185.234V52.5H184.24ZM196.711 52.57C196.002 52.57 195.363 52.4113 194.793 52.094C194.233 51.7673 193.79 51.324 193.463 50.764C193.137 50.1947 192.973 49.546 192.973 48.818C192.973 48.0807 193.137 47.432 193.463 46.872C193.79 46.312 194.233 45.8733 194.793 45.556C195.353 45.2387 195.993 45.08 196.711 45.08C197.439 45.08 198.083 45.2387 198.643 45.556C199.213 45.8733 199.656 46.312 199.973 46.872C200.3 47.432 200.463 48.0807 200.463 48.818C200.463 49.546 200.3 50.1947 199.973 50.764C199.656 51.324 199.213 51.7673 198.643 52.094C198.074 52.4113 197.43 52.57 196.711 52.57ZM196.711 51.688C197.243 51.688 197.715 51.5713 198.125 51.338C198.536 51.0953 198.858 50.7593 199.091 50.33C199.334 49.8913 199.455 49.3873 199.455 48.818C199.455 48.2393 199.334 47.7353 199.091 47.306C198.858 46.8767 198.536 46.5453 198.125 46.312C197.715 46.0693 197.248 45.948 196.725 45.948C196.203 45.948 195.736 46.0693 195.325 46.312C194.915 46.5453 194.588 46.8767 194.345 47.306C194.103 47.7353 193.981 48.2393 193.981 48.818C193.981 49.3873 194.103 49.8913 194.345 50.33C194.588 50.7593 194.915 51.0953 195.325 51.338C195.736 51.5713 196.198 51.688 196.711 51.688ZM202.588 52.5V45.15H205.836C206.666 45.15 207.32 45.3087 207.796 45.626C208.281 45.9433 208.524 46.41 208.524 47.026C208.524 47.6233 208.295 48.0853 207.838 48.412C207.38 48.7293 206.778 48.888 206.032 48.888L206.228 48.594C207.105 48.594 207.749 48.7573 208.16 49.084C208.57 49.4107 208.776 49.882 208.776 50.498C208.776 51.1327 208.542 51.6273 208.076 51.982C207.618 52.3273 206.904 52.5 205.934 52.5H202.588ZM203.554 51.716H205.892C206.517 51.716 206.988 51.618 207.306 51.422C207.632 51.2167 207.796 50.89 207.796 50.442C207.796 49.994 207.651 49.6673 207.362 49.462C207.072 49.2567 206.615 49.154 205.99 49.154H203.554V51.716ZM203.554 48.412H205.766C206.335 48.412 206.769 48.3047 207.068 48.09C207.376 47.8753 207.53 47.5627 207.53 47.152C207.53 46.7413 207.376 46.4333 207.068 46.228C206.769 46.0227 206.335 45.92 205.766 45.92H203.554V48.412Z" fill="white"/>
</svg>
