<svg width="139" height="55" viewBox="0 0 139 55" fill="none" xmlns="http://www.w3.org/2000/svg">
<g clip-path="url(#clip0_639_22)">
<path d="M0.96 23H9.856V22.552C6.656 22.136 5.696 20.792 5.696 17.56V2.872H5.888L14.208 23.032H15.36L22.816 2.872H22.976V20.728C22.976 22.008 22.176 22.456 19.904 22.552V23H30.944V22.552C28.256 22.456 27.616 21.944 27.616 20.728V2.968C27.616 1.752 28.256 1.208 30.944 1.112V0.695999H22.784L16.736 17.144H16.576L9.984 0.695999H0.96V1.112C3.712 1.176 4.896 2.648 4.896 4.568V17.56C4.896 20.792 3.968 22.168 0.96 22.552V23Z" fill="white"/>
<path d="M34.6 23H46.696V22.552C43.848 22.488 42.984 21.944 42.984 20.728V1.272H43.752C46.216 1.272 48.136 3.736 50.376 8.088L50.856 8.024L50.696 0.695999H30.568L30.376 8.024L30.856 8.088C33.128 3.64 35.08 1.272 37.512 1.272H38.312V20.728C38.312 21.944 37.416 22.488 34.6 22.552V23Z" fill="white"/>
<path d="M58.992 23H70C77.136 23 79.344 19.928 79.344 16.728C79.344 13.656 76.848 11.448 71.728 11.256V11.16C76.656 10.68 78.512 8.408 78.512 6.04C78.512 3.416 76.688 0.695999 69.712 0.695999H58.992V1.112C61.648 1.208 62.32 1.752 62.32 2.968V20.728C62.32 21.944 61.648 22.456 58.992 22.552V23ZM66.992 10.968V1.272H69.2C72.976 1.272 73.744 3.384 73.744 6.136C73.744 9.112 72.816 10.968 69.296 10.968H66.992ZM66.992 22.392V11.544H69.36C73.296 11.544 74.512 13.912 74.512 16.728C74.512 20.28 73.776 22.392 69.68 22.392H66.992Z" fill="white"/>
<path d="M81.216 23H92.704V22.552C89.92 22.456 89.28 21.944 89.28 20.728V2.968C89.28 1.752 89.92 1.208 92.704 1.112V0.695999H81.216V1.112C84 1.208 84.64 1.752 84.64 2.968V20.728C84.64 21.944 84 22.456 81.216 22.552V23Z" fill="white"/>
</g>
<g clip-path="url(#clip1_639_22)">
<path d="M66.768 43.984V33.936C66.768 32.656 67.536 32.208 69.84 32.08V31.696H58.768V32.112C61.424 32.208 62.096 32.72 62.096 33.936V51.728C62.096 52.976 61.424 53.456 58.768 53.552V54H69.776V53.552C67.536 53.456 66.768 53.04 66.768 51.728V44.912L68.496 43.088L73.776 50.8C75.056 52.656 74.8 53.36 72.496 53.552V54H83.152V53.552C81.04 53.296 80.432 52.432 78.672 49.936L71.6 39.824L73.84 37.488C77.104 34.096 79.12 32.656 81.872 32.112V31.696H73.104V32.112C76.24 32.464 75.856 34.288 73.936 36.336L66.768 43.984Z" fill="white"/>
<path d="M81.216 54H92.704V53.552C89.92 53.456 89.28 52.944 89.28 51.728V33.968C89.28 32.752 89.92 32.208 92.704 32.112V31.696H81.216V32.112C84 32.208 84.64 32.752 84.64 33.968V51.728C84.64 52.944 84 53.456 81.216 53.552V54Z" fill="white"/>
<path d="M111.128 54.352H112.664V37.104C112.664 33.936 113.528 32.56 116.536 32.112V31.696H107.448V32.112C110.68 32.496 111.864 33.936 111.864 37.104V47.728H111.832L99.512 31.696H91.96V32.112C94.712 32.24 95.896 33.872 95.896 35.824V48.56C95.896 51.792 94.968 53.168 91.96 53.552V54H100.984V53.552C97.72 53.2 96.696 51.792 96.696 48.56V35.728H96.728L111.128 54.352Z" fill="white"/>
<path d="M126.896 54.544C130.288 54.544 133.392 53.552 135.44 52.336V46.032C135.44 44.592 135.984 44.208 137.872 44.08V43.664H127.504V44.08C130.224 44.176 130.96 44.88 130.96 46.064V52.816C130.064 53.584 128.752 53.936 127.184 53.936C123.632 53.936 120.496 50.576 120.496 42.832C120.496 35.088 123.536 31.76 126.928 31.76C130.256 31.76 132.496 34.32 134.576 38.768H135.024V30.992H134.672L133.104 32.592C131.632 31.76 129.744 31.152 127.184 31.152C120.72 31.152 115.344 35.824 115.344 42.896C115.344 50.352 120.432 54.544 126.896 54.544Z" fill="white"/>
</g>
<defs>
<clipPath id="clip0_639_22">
<rect width="94" height="24" fill="white"/>
</clipPath>
<clipPath id="clip1_639_22">
<rect width="81" height="24" fill="white" transform="translate(58 31)"/>
</clipPath>
</defs>
</svg>
