<svg width="116" height="62" viewBox="0 0 116 62" fill="none" xmlns="http://www.w3.org/2000/svg">
<path d="M52.1822 53C51.1182 53 50.2129 52.8413 49.4662 52.524C48.7382 52.188 48.1876 51.6653 47.8142 50.956C47.4596 50.228 47.2822 49.276 47.2822 48.1V32.28H51.4262V47.428C51.4262 47.876 51.5009 48.24 51.6502 48.52C51.8182 48.8 52.0422 48.996 52.3222 49.108C52.6022 49.2013 52.9196 49.248 53.2742 49.248H59.8262V53H52.1822ZM69.6685 53.14C68.5298 53.14 67.4658 53.0467 66.4765 52.86C65.4871 52.6547 64.6191 52.3093 63.8725 51.824C63.1445 51.32 62.5751 50.6293 62.1645 49.752C61.7725 48.856 61.5765 47.7173 61.5765 46.336V32.28H65.7205V46.308C65.7205 47.0733 65.8698 47.68 66.1685 48.128C66.4858 48.576 66.9338 48.9027 67.5125 49.108C68.1098 49.3133 68.8285 49.416 69.6685 49.416C70.4898 49.416 71.1898 49.3133 71.7685 49.108C72.3658 48.9027 72.8138 48.576 73.1125 48.128C73.4298 47.68 73.5885 47.0733 73.5885 46.308V32.28H77.7605V46.336C77.7605 47.7173 77.5551 48.856 77.1445 49.752C76.7338 50.6293 76.1645 51.32 75.4365 51.824C74.7085 52.3093 73.8498 52.6547 72.8605 52.86C71.8898 53.0467 70.8258 53.14 69.6685 53.14ZM88.0238 53.168C86.8104 53.168 85.7371 53.028 84.8038 52.748C83.8891 52.468 83.1051 51.9547 82.4518 51.208C81.8171 50.4613 81.3318 49.3973 80.9958 48.016C80.6784 46.616 80.5198 44.8053 80.5198 42.584C80.5198 40.4373 80.6878 38.6827 81.0238 37.32C81.3784 35.9387 81.8824 34.8747 82.5358 34.128C83.1891 33.3627 83.9824 32.8307 84.9158 32.532C85.8491 32.2333 86.9038 32.084 88.0798 32.084C89.0131 32.084 89.8811 32.14 90.6838 32.252C91.5051 32.3453 92.2424 32.4667 92.8958 32.616C93.5491 32.7467 94.0998 32.896 94.5478 33.064V36.284C94.2118 36.2093 93.7544 36.1347 93.1758 36.06C92.6158 35.9853 91.9718 35.9293 91.2438 35.892C90.5158 35.836 89.7504 35.808 88.9478 35.808C88.1638 35.808 87.4918 35.9013 86.9318 36.088C86.3904 36.256 85.9518 36.5827 85.6158 37.068C85.2984 37.5347 85.0558 38.216 84.8878 39.112C84.7384 40.008 84.6638 41.1747 84.6638 42.612C84.6638 43.9933 84.7291 45.132 84.8598 46.028C85.0091 46.924 85.2424 47.624 85.5598 48.128C85.8771 48.6133 86.3064 48.9587 86.8478 49.164C87.4078 49.3507 88.1078 49.444 88.9478 49.444C90.3664 49.444 91.5144 49.416 92.3918 49.36C93.2878 49.304 94.0064 49.2387 94.5478 49.164V52.356C94.0438 52.524 93.4651 52.6733 92.8118 52.804C92.1584 52.916 91.4398 53 90.6558 53.056C89.8718 53.1307 88.9944 53.168 88.0238 53.168ZM97.458 53V32.28H101.602V40.904H109.414V32.28H113.586V53H109.414V44.628H101.602V53H97.458Z" fill="#0D0D0F" fill-opacity="0.8"/>
<path d="M1.64802 28L4.05602 7.28H8.03202L12.792 23.156L17.524 7.28H21.472L23.908 28H19.904L18.112 12.74L18.756 12.796L14.696 28H10.804L6.68802 12.796L7.38802 12.768L5.65202 28H1.64802ZM26.9268 28V7.28H31.0708V28H26.9268ZM34.665 28V7.28H38.809V15.904H46.621V7.28H50.793V28H46.621V19.628H38.809V28H34.665ZM53.0365 28L59.5325 7.28H64.7685L71.2645 28H66.9525L65.6365 23.66H58.5805L57.2925 28H53.0365ZM59.5605 19.936H64.6565L62.1085 10.836L59.5605 19.936ZM73.5205 28V7.28H77.6645V28H73.5205Z" fill="#0D0D0F" fill-opacity="0.8"/>
</svg>
