<svg width="116" height="62" viewBox="0 0 116 62" fill="none" xmlns="http://www.w3.org/2000/svg">
<path d="M52.1813 53C51.1173 53 50.2119 52.8413 49.4653 52.524C48.7373 52.188 48.1866 51.6653 47.8133 50.956C47.4586 50.228 47.2813 49.276 47.2813 48.1V32.28H51.4253V47.428C51.4253 47.876 51.4999 48.24 51.6493 48.52C51.8173 48.8 52.0413 48.996 52.3213 49.108C52.6013 49.2013 52.9186 49.248 53.2733 49.248H59.8253V53H52.1813ZM69.6675 53.14C68.5288 53.14 67.4648 53.0467 66.4755 52.86C65.4861 52.6547 64.6181 52.3093 63.8715 51.824C63.1435 51.32 62.5741 50.6293 62.1635 49.752C61.7715 48.856 61.5755 47.7173 61.5755 46.336V32.28H65.7195V46.308C65.7195 47.0733 65.8688 47.68 66.1675 48.128C66.4848 48.576 66.9328 48.9027 67.5115 49.108C68.1088 49.3133 68.8275 49.416 69.6675 49.416C70.4888 49.416 71.1888 49.3133 71.7675 49.108C72.3648 48.9027 72.8128 48.576 73.1115 48.128C73.4288 47.68 73.5875 47.0733 73.5875 46.308V32.28H77.7595V46.336C77.7595 47.7173 77.5541 48.856 77.1435 49.752C76.7328 50.6293 76.1635 51.32 75.4355 51.824C74.7075 52.3093 73.8488 52.6547 72.8595 52.86C71.8888 53.0467 70.8248 53.14 69.6675 53.14ZM88.0228 53.168C86.8095 53.168 85.7361 53.028 84.8028 52.748C83.8881 52.468 83.1041 51.9547 82.4508 51.208C81.8161 50.4613 81.3308 49.3973 80.9948 48.016C80.6775 46.616 80.5188 44.8053 80.5188 42.584C80.5188 40.4373 80.6868 38.6827 81.0228 37.32C81.3775 35.9387 81.8815 34.8747 82.5348 34.128C83.1881 33.3627 83.9815 32.8307 84.9148 32.532C85.8481 32.2333 86.9028 32.084 88.0788 32.084C89.0121 32.084 89.8801 32.14 90.6828 32.252C91.5041 32.3453 92.2415 32.4667 92.8948 32.616C93.5481 32.7467 94.0988 32.896 94.5468 33.064V36.284C94.2108 36.2093 93.7535 36.1347 93.1748 36.06C92.6148 35.9853 91.9708 35.9293 91.2428 35.892C90.5148 35.836 89.7495 35.808 88.9468 35.808C88.1628 35.808 87.4908 35.9013 86.9308 36.088C86.3895 36.256 85.9508 36.5827 85.6148 37.068C85.2975 37.5347 85.0548 38.216 84.8868 39.112C84.7375 40.008 84.6628 41.1747 84.6628 42.612C84.6628 43.9933 84.7281 45.132 84.8588 46.028C85.0081 46.924 85.2415 47.624 85.5588 48.128C85.8761 48.6133 86.3055 48.9587 86.8468 49.164C87.4068 49.3507 88.1068 49.444 88.9468 49.444C90.3655 49.444 91.5135 49.416 92.3908 49.36C93.2868 49.304 94.0055 49.2387 94.5468 49.164V52.356C94.0428 52.524 93.4641 52.6733 92.8108 52.804C92.1575 52.916 91.4388 53 90.6548 53.056C89.8708 53.1307 88.9935 53.168 88.0228 53.168ZM97.457 53V32.28H101.601V40.904H109.413V32.28H113.585V53H109.413V44.628H101.601V53H97.457Z" fill="white"/>
<path d="M1.64753 28L4.05553 7.28H8.03153L12.7915 23.156L17.5235 7.28H21.4715L23.9075 28H19.9035L18.1115 12.74L18.7555 12.796L14.6955 28H10.8035L6.68753 12.796L7.38753 12.768L5.65153 28H1.64753ZM26.9263 28V7.28H31.0703V28H26.9263ZM34.6646 28V7.28H38.8086V15.904H46.6206V7.28H50.7926V28H46.6206V19.628H38.8086V28H34.6646ZM53.0361 28L59.5321 7.28H64.7681L71.2641 28H66.9521L65.6361 23.66H58.5801L57.2921 28H53.0361ZM59.5601 19.936H64.6561L62.1081 10.836L59.5601 19.936ZM73.52 28V7.28H77.664V28H73.52Z" fill="white"/>
</svg>
