<svg width="184" height="25" viewBox="0 0 184 25" fill="none" xmlns="http://www.w3.org/2000/svg">
<path d="M6.03409 24H0.761364L8.79545 0.727272H15.1364L23.1591 24H17.8864L12.0568 6.04545H11.875L6.03409 24ZM5.70455 14.8523H18.1591V18.6932H5.70455V14.8523ZM45.4006 8.875H40.4233C40.3324 8.23106 40.1468 7.65909 39.8665 7.15909C39.5862 6.65151 39.2263 6.2197 38.7869 5.86364C38.3475 5.50757 37.84 5.23485 37.2642 5.04545C36.696 4.85606 36.0786 4.76136 35.4119 4.76136C34.2074 4.76136 33.1581 5.06061 32.2642 5.65909C31.3703 6.25 30.6771 7.11364 30.1847 8.25C29.6922 9.37879 29.446 10.75 29.446 12.3636C29.446 14.0227 29.6922 15.4167 30.1847 16.5455C30.6847 17.6742 31.3816 18.5265 32.2756 19.1023C33.1695 19.678 34.2036 19.9659 35.3778 19.9659C36.0369 19.9659 36.6468 19.8788 37.2074 19.7045C37.7756 19.5303 38.2794 19.2765 38.7188 18.9432C39.1581 18.6023 39.5218 18.1894 39.8097 17.7045C40.1051 17.2197 40.3097 16.6667 40.4233 16.0455L45.4006 16.0682C45.2718 17.1364 44.9498 18.1667 44.4347 19.1591C43.9271 20.1439 43.2415 21.0265 42.3778 21.8068C41.5218 22.5795 40.4991 23.1932 39.3097 23.6477C38.1278 24.0947 36.7907 24.3182 35.2983 24.3182C33.2225 24.3182 31.3665 23.8485 29.7301 22.9091C28.1013 21.9697 26.8134 20.6098 25.8665 18.8295C24.9271 17.0492 24.4574 14.8939 24.4574 12.3636C24.4574 9.82576 24.9347 7.66667 25.8892 5.88636C26.8438 4.10606 28.1392 2.75 29.7756 1.81818C31.4119 0.878787 33.2528 0.40909 35.2983 0.40909C36.6468 0.40909 37.8968 0.598484 39.0483 0.977272C40.2074 1.35606 41.2339 1.90909 42.1278 2.63636C43.0218 3.35606 43.7491 4.23864 44.3097 5.28409C44.8778 6.32954 45.2415 7.52651 45.4006 8.875ZM48.0426 4.78409V0.727272H67.1562V4.78409H60.0312V24H55.1676V4.78409H48.0426ZM75.2244 0.727272V24H70.304V0.727272H75.2244ZM83.4773 0.727272L89.1023 18.4091H89.3182L94.9545 0.727272H100.409L92.3864 24H86.0455L78.0114 0.727272H83.4773ZM103.21 24V0.727272H118.892V4.78409H108.131V10.3295H118.085V14.3864H108.131V19.9432H118.938V24H103.21Z" fill="#62667F"/>
<path d="M124.145 24V0.727272H131.702C133.111 0.727272 134.3 0.977272 135.27 1.47727C136.24 1.97727 136.974 2.67803 137.474 3.57954C137.982 4.48106 138.236 5.5303 138.236 6.72727C138.236 7.66667 138.084 8.5 137.781 9.22727C137.478 9.95454 137.054 10.5568 136.509 11.0341C135.971 11.5038 135.338 11.8295 134.611 12.0114V12.1477C135.414 12.2083 136.16 12.4886 136.849 12.9886C137.539 13.4811 138.092 14.1515 138.509 15C138.933 15.8485 139.145 16.8371 139.145 17.9659C139.145 19.1553 138.887 20.2045 138.372 21.1136C137.865 22.0152 137.103 22.7235 136.088 23.2386C135.073 23.7462 133.815 24 132.315 24H124.145ZM125.565 22.6818H132.315C134.065 22.6818 135.41 22.2424 136.349 21.3636C137.296 20.4848 137.77 19.3523 137.77 17.9659C137.77 16.9886 137.539 16.1136 137.077 15.3409C136.622 14.5682 135.99 13.9583 135.179 13.5114C134.368 13.0568 133.429 12.8295 132.361 12.8295H125.565V22.6818ZM125.565 11.5341H132.19C133.183 11.5341 134.024 11.3182 134.713 10.8864C135.41 10.4545 135.94 9.875 136.304 9.14773C136.675 8.42045 136.861 7.61364 136.861 6.72727C136.861 5.28788 136.414 4.14773 135.52 3.30682C134.626 2.46591 133.353 2.04545 131.702 2.04545H125.565V11.5341ZM163.25 12.3636C163.25 14.7652 162.833 16.8636 162 18.6591C161.167 20.447 160.008 21.8371 158.523 22.8295C157.045 23.822 155.341 24.3182 153.409 24.3182C151.47 24.3182 149.758 23.822 148.273 22.8295C146.795 21.8295 145.64 20.4356 144.807 18.6477C143.973 16.8523 143.557 14.7576 143.557 12.3636C143.557 9.96212 143.973 7.86742 144.807 6.07954C145.648 4.29167 146.807 2.90151 148.284 1.90909C149.761 0.90909 151.47 0.40909 153.409 0.40909C155.341 0.40909 157.045 0.905302 158.523 1.89773C160.008 2.89015 161.167 4.28409 162 6.07954C162.833 7.86742 163.25 9.96212 163.25 12.3636ZM161.864 12.3636C161.864 10.2045 161.5 8.33333 160.773 6.75C160.053 5.16667 159.057 3.94318 157.784 3.07954C156.511 2.20833 155.053 1.77273 153.409 1.77273C151.765 1.77273 150.307 2.20454 149.034 3.06818C147.761 3.92424 146.761 5.14773 146.034 6.73864C145.314 8.32197 144.955 10.197 144.955 12.3636C144.955 14.5076 145.311 16.375 146.023 17.9659C146.742 19.5492 147.739 20.7765 149.011 21.6477C150.284 22.5189 151.75 22.9545 153.409 22.9545C155.053 22.9545 156.511 22.5227 157.784 21.6591C159.057 20.7879 160.053 19.5606 160.773 17.9773C161.5 16.3939 161.864 14.5227 161.864 12.3636ZM168.04 0.727272L174.915 11.2614H175.04L181.915 0.727272H183.631L175.983 12.3636L183.631 24H181.915L175.04 13.5341H174.915L168.04 24H166.324L174.04 12.3636L166.324 0.727272H168.04Z" fill="#FCFEFF"/>
</svg>
