<svg width="193" height="62" viewBox="0 0 193 62" fill="none" xmlns="http://www.w3.org/2000/svg">
<path d="M4.29545 59.1491C3.5232 59.1491 2.85535 58.9851 2.2919 58.657C1.73177 58.3255 1.29924 57.8648 0.994318 57.2749C0.689394 56.6816 0.536932 55.9938 0.536932 55.2116C0.536932 54.4228 0.689394 53.7334 0.994318 53.1435C1.29924 52.5502 1.73177 52.0895 2.2919 51.7614C2.85535 51.4299 3.5232 51.2642 4.29545 51.2642C5.06771 51.2642 5.7339 51.4299 6.29403 51.7614C6.85748 52.0895 7.29167 52.5502 7.59659 53.1435C7.90152 53.7334 8.05398 54.4228 8.05398 55.2116C8.05398 55.9938 7.90152 56.6816 7.59659 57.2749C7.29167 57.8648 6.85748 58.3255 6.29403 58.657C5.7339 58.9851 5.06771 59.1491 4.29545 59.1491ZM4.3054 57.5085C4.65672 57.5085 4.95005 57.4091 5.18537 57.2102C5.42069 57.008 5.59801 56.733 5.71733 56.3849C5.83996 56.0369 5.90128 55.6409 5.90128 55.1967C5.90128 54.7526 5.83996 54.3565 5.71733 54.0085C5.59801 53.6605 5.42069 53.3854 5.18537 53.1832C4.95005 52.9811 4.65672 52.88 4.3054 52.88C3.95076 52.88 3.65246 52.9811 3.41051 53.1832C3.17188 53.3854 2.99124 53.6605 2.86861 54.0085C2.74929 54.3565 2.68963 54.7526 2.68963 55.1967C2.68963 55.6409 2.74929 56.0369 2.86861 56.3849C2.99124 56.733 3.17188 57.008 3.41051 57.2102C3.65246 57.4091 3.95076 57.5085 4.3054 57.5085ZM15.5157 54.3366V56.0021H11.5285V54.3366H15.5157ZM12.2245 51.3636V59H10.2011V51.3636H12.2245ZM16.8432 51.3636V59H14.8346V51.3636H16.8432ZM18.8088 59L18.7989 57.3196H19.0524C19.2314 57.3196 19.3855 57.2765 19.5148 57.1903C19.6474 57.1009 19.7567 56.9567 19.8429 56.7578C19.9291 56.5589 19.997 56.2955 20.0467 55.9673C20.0965 55.6359 20.1296 55.2282 20.1462 54.7443L20.2705 51.3636H26.0773V59H24.0588V53.0291H22.1746L22.0553 55.3608C22.0254 56.0005 21.9476 56.5507 21.8216 57.0114C21.699 57.4721 21.5283 57.8499 21.3095 58.1449C21.0908 58.4366 20.8273 58.652 20.519 58.7912C20.2108 58.9304 19.8529 59 19.4452 59H18.8088ZM30.6667 59.1442C30.1795 59.1442 29.7453 59.0597 29.3642 58.8906C28.983 58.7183 28.6814 58.4647 28.4593 58.13C28.2406 57.7919 28.1312 57.371 28.1312 56.8672C28.1312 56.4429 28.2091 56.0866 28.3649 55.7983C28.5206 55.5099 28.7328 55.2779 29.0012 55.1023C29.2697 54.9266 29.5746 54.794 29.916 54.7045C30.2607 54.6151 30.622 54.5521 30.9998 54.5156C31.4439 54.4692 31.8019 54.4261 32.0737 54.3864C32.3455 54.3433 32.5427 54.2803 32.6653 54.1974C32.7879 54.1146 32.8492 53.992 32.8492 53.8295V53.7997C32.8492 53.4848 32.7498 53.2412 32.5509 53.0689C32.3554 52.8965 32.077 52.8104 31.7157 52.8104C31.3346 52.8104 31.0313 52.8949 30.8059 53.0639C30.5805 53.2296 30.4314 53.4384 30.3585 53.6903L28.3997 53.5312C28.4991 53.0672 28.6946 52.6662 28.9863 52.3281C29.278 51.9867 29.6542 51.7249 30.1149 51.5426C30.5789 51.357 31.1158 51.2642 31.7257 51.2642C32.1499 51.2642 32.5559 51.3139 32.9437 51.4134C33.3348 51.5128 33.6812 51.6669 33.9828 51.8757C34.2877 52.0845 34.528 52.353 34.7036 52.6811C34.8793 53.0059 34.9671 53.3954 34.9671 53.8494V59H32.9586V57.9411H32.899C32.7763 58.1797 32.6123 58.3902 32.4068 58.5724C32.2013 58.7514 31.9544 58.8923 31.666 58.995C31.3776 59.0945 31.0446 59.1442 30.6667 59.1442ZM31.2732 57.6825C31.5848 57.6825 31.8599 57.6212 32.0985 57.4986C32.3372 57.3726 32.5244 57.2036 32.6603 56.9915C32.7962 56.7794 32.8642 56.5391 32.8642 56.2706V55.4602C32.7979 55.5033 32.7067 55.5431 32.5907 55.5795C32.478 55.6127 32.3504 55.6442 32.2079 55.674C32.0654 55.7005 31.9229 55.7254 31.7803 55.7486C31.6378 55.7685 31.5086 55.7867 31.3926 55.8033C31.144 55.8397 30.9269 55.8977 30.7413 55.9773C30.5557 56.0568 30.4115 56.1645 30.3088 56.3004C30.206 56.433 30.1546 56.5987 30.1546 56.7976C30.1546 57.0859 30.259 57.3063 30.4678 57.4588C30.68 57.608 30.9484 57.6825 31.2732 57.6825ZM39.4037 56.206L42.153 51.3636H44.241V59H42.2226V54.1428L39.4832 59H37.3803V51.3636H39.4037V56.206ZM41.7901 48.6989H43.2666C43.2633 49.3021 43.0396 49.7876 42.5954 50.1555C42.1546 50.5234 41.558 50.7074 40.8057 50.7074C40.05 50.7074 39.4517 50.5234 39.0109 50.1555C38.5701 49.7876 38.3497 49.3021 38.3497 48.6989H39.8163C39.813 48.9276 39.8859 49.133 40.0351 49.3153C40.1875 49.4976 40.4444 49.5888 40.8057 49.5888C41.157 49.5888 41.4089 49.4993 41.5614 49.3203C41.7138 49.1413 41.7901 48.9342 41.7901 48.6989ZM52.0235 54.3366V56.0021H48.0363V54.3366H52.0235ZM48.7323 51.3636V59H46.7088V51.3636H48.7323ZM53.3509 51.3636V59H51.3424V51.3636H53.3509ZM60.5218 53.9787V55.6591H55.8783V53.9787H60.5218ZM63.0965 59V51.3636H65.2144V54.3267H65.811L67.8891 51.3636H70.3749L67.6753 55.152L70.4047 59H67.8891L66.0049 56.2905H65.2144V59H63.0965ZM74.0931 56.206L76.8424 51.3636H78.9304V59H76.912V54.1428L74.1726 59H72.0696V51.3636H74.0931V56.206ZM86.7128 54.3366V56.0021H82.7256V54.3366H86.7128ZM83.4217 51.3636V59H81.3982V51.3636H83.4217ZM88.0403 51.3636V59H86.0317V51.3636H88.0403ZM93.9037 59.1491C93.1314 59.1491 92.4636 58.9851 91.9001 58.657C91.34 58.3255 90.9074 57.8648 90.6025 57.2749C90.2976 56.6816 90.1451 55.9938 90.1451 55.2116C90.1451 54.4228 90.2976 53.7334 90.6025 53.1435C90.9074 52.5502 91.34 52.0895 91.9001 51.7614C92.4636 51.4299 93.1314 51.2642 93.9037 51.2642C94.6759 51.2642 95.3421 51.4299 95.9022 51.7614C96.4657 52.0895 96.8999 52.5502 97.2048 53.1435C97.5097 53.7334 97.6622 54.4228 97.6622 55.2116C97.6622 55.9938 97.5097 56.6816 97.2048 57.2749C96.8999 57.8648 96.4657 58.3255 95.9022 58.657C95.3421 58.9851 94.6759 59.1491 93.9037 59.1491ZM93.9136 57.5085C94.2649 57.5085 94.5582 57.4091 94.7936 57.2102C95.0289 57.008 95.2062 56.733 95.3255 56.3849C95.4482 56.0369 95.5095 55.6409 95.5095 55.1967C95.5095 54.7526 95.4482 54.3565 95.3255 54.0085C95.2062 53.6605 95.0289 53.3854 94.7936 53.1832C94.5582 52.9811 94.2649 52.88 93.9136 52.88C93.559 52.88 93.2607 52.9811 93.0187 53.1832C92.7801 53.3854 92.5994 53.6605 92.4768 54.0085C92.3575 54.3565 92.2978 54.7526 92.2978 55.1967C92.2978 55.6409 92.3575 56.0369 92.4768 56.3849C92.5994 56.733 92.7801 57.008 93.0187 57.2102C93.2607 57.4091 93.559 57.5085 93.9136 57.5085ZM99.0698 53.0291V51.3636H105.99V53.0291H103.529V59H101.511V53.0291H99.0698ZM111.251 59.1491C110.465 59.1491 109.789 58.9901 109.222 58.6719C108.659 58.3504 108.225 57.8963 107.92 57.3097C107.615 56.7197 107.462 56.022 107.462 55.2166C107.462 54.4311 107.615 53.7417 107.92 53.1484C108.225 52.5552 108.654 52.0928 109.208 51.7614C109.764 51.4299 110.417 51.2642 111.166 51.2642C111.67 51.2642 112.139 51.3454 112.573 51.5078C113.011 51.6669 113.392 51.9072 113.717 52.2287C114.045 52.5502 114.3 52.9545 114.482 53.4418C114.665 53.9257 114.756 54.4924 114.756 55.142V55.7237H108.308V54.4112H112.762C112.762 54.1063 112.696 53.8362 112.563 53.6009C112.431 53.3655 112.247 53.1816 112.011 53.049C111.779 52.9131 111.509 52.8452 111.201 52.8452C110.88 52.8452 110.595 52.9197 110.346 53.0689C110.101 53.2147 109.908 53.4119 109.769 53.6605C109.63 53.9058 109.559 54.1792 109.556 54.4808V55.7287C109.556 56.1065 109.625 56.433 109.764 56.7081C109.907 56.9832 110.107 57.1953 110.366 57.3445C110.624 57.4936 110.931 57.5682 111.286 57.5682C111.521 57.5682 111.736 57.535 111.932 57.4688C112.127 57.4025 112.295 57.303 112.434 57.1705C112.573 57.0379 112.679 56.8755 112.752 56.6832L114.711 56.8125C114.612 57.2831 114.408 57.6941 114.1 58.0455C113.795 58.3935 113.4 58.6652 112.916 58.8608C112.436 59.053 111.881 59.1491 111.251 59.1491ZM119.085 59.1442C118.598 59.1442 118.164 59.0597 117.783 58.8906C117.402 58.7183 117.1 58.4647 116.878 58.13C116.659 57.7919 116.55 57.371 116.55 56.8672C116.55 56.4429 116.628 56.0866 116.784 55.7983C116.939 55.5099 117.152 55.2779 117.42 55.1023C117.688 54.9266 117.993 54.794 118.335 54.7045C118.679 54.6151 119.041 54.5521 119.419 54.5156C119.863 54.4692 120.221 54.4261 120.492 54.3864C120.764 54.3433 120.961 54.2803 121.084 54.1974C121.207 54.1146 121.268 53.992 121.268 53.8295V53.7997C121.268 53.4848 121.169 53.2412 120.97 53.0689C120.774 52.8965 120.496 52.8104 120.134 52.8104C119.753 52.8104 119.45 52.8949 119.225 53.0639C118.999 53.2296 118.85 53.4384 118.777 53.6903L116.818 53.5312C116.918 53.0672 117.113 52.6662 117.405 52.3281C117.697 51.9867 118.073 51.7249 118.534 51.5426C118.998 51.357 119.535 51.2642 120.144 51.2642C120.569 51.2642 120.975 51.3139 121.362 51.4134C121.754 51.5128 122.1 51.6669 122.402 51.8757C122.706 52.0845 122.947 52.353 123.122 52.6811C123.298 53.0059 123.386 53.3954 123.386 53.8494V59H121.377V57.9411H121.318C121.195 58.1797 121.031 58.3902 120.826 58.5724C120.62 58.7514 120.373 58.8923 120.085 58.995C119.796 59.0945 119.463 59.1442 119.085 59.1442ZM119.692 57.6825C120.004 57.6825 120.279 57.6212 120.517 57.4986C120.756 57.3726 120.943 57.2036 121.079 56.9915C121.215 56.7794 121.283 56.5391 121.283 56.2706V55.4602C121.217 55.5033 121.125 55.5431 121.009 55.5795C120.897 55.6127 120.769 55.6442 120.627 55.674C120.484 55.7005 120.342 55.7254 120.199 55.7486C120.057 55.7685 119.927 55.7867 119.811 55.8033C119.563 55.8397 119.346 55.8977 119.16 55.9773C118.974 56.0568 118.83 56.1645 118.728 56.3004C118.625 56.433 118.573 56.5987 118.573 56.7976C118.573 57.0859 118.678 57.3063 118.887 57.4588C119.099 57.608 119.367 57.6825 119.692 57.6825ZM125.032 53.0291V51.3636H131.953V53.0291H129.492V59H127.473V53.0291H125.032ZM134.007 61.8636V51.3636H136.095V52.6463H136.189C136.282 52.4408 136.416 52.232 136.592 52.0199C136.771 51.8045 137.003 51.6255 137.288 51.483C137.576 51.3371 137.934 51.2642 138.362 51.2642C138.918 51.2642 139.432 51.41 139.903 51.7017C140.373 51.9901 140.75 52.4259 141.031 53.0092C141.313 53.5893 141.454 54.3168 141.454 55.1918C141.454 56.0436 141.316 56.7628 141.041 57.3494C140.77 57.9328 140.398 58.3752 139.928 58.6768C139.46 58.9751 138.937 59.1243 138.357 59.1243C137.946 59.1243 137.596 59.0563 137.308 58.9205C137.023 58.7846 136.789 58.6139 136.607 58.4084C136.424 58.1996 136.285 57.9891 136.189 57.777H136.124V61.8636H134.007ZM136.08 55.1818C136.08 55.6359 136.143 56.032 136.269 56.37C136.395 56.7081 136.577 56.9716 136.815 57.1605C137.054 57.3461 137.344 57.4389 137.685 57.4389C138.03 57.4389 138.322 57.3445 138.56 57.1555C138.799 56.9633 138.98 56.6982 139.102 56.3601C139.228 56.0187 139.291 55.6259 139.291 55.1818C139.291 54.741 139.23 54.3532 139.107 54.0185C138.985 53.6837 138.804 53.4219 138.565 53.233C138.327 53.044 138.033 52.9496 137.685 52.9496C137.341 52.9496 137.049 53.0407 136.81 53.223C136.575 53.4053 136.395 53.6638 136.269 53.9986C136.143 54.3333 136.08 54.7277 136.08 55.1818Z" fill="white"/>
<path d="M7.26136 31L0.602273 7.72727H5.97727L9.82955 23.8977H10.0227L14.2727 7.72727H18.875L23.1136 23.9318H23.3182L27.1705 7.72727H32.5455L25.8864 31H21.0909L16.6591 15.7841H16.4773L12.0568 31H7.26136ZM95.1818 15.875H90.2045C90.1136 15.2311 89.928 14.6591 89.6477 14.1591C89.3674 13.6515 89.0076 13.2197 88.5682 12.8636C88.1288 12.5076 87.6212 12.2348 87.0455 12.0455C86.4773 11.8561 85.8598 11.7614 85.1932 11.7614C83.9886 11.7614 82.9394 12.0606 82.0455 12.6591C81.1515 13.25 80.4583 14.1136 79.9659 15.25C79.4735 16.3788 79.2273 17.75 79.2273 19.3636C79.2273 21.0227 79.4735 22.4167 79.9659 23.5455C80.4659 24.6742 81.1629 25.5265 82.0568 26.1023C82.9508 26.678 83.9848 26.9659 85.1591 26.9659C85.8182 26.9659 86.428 26.8788 86.9886 26.7045C87.5568 26.5303 88.0606 26.2765 88.5 25.9432C88.9394 25.6023 89.303 25.1894 89.5909 24.7045C89.8864 24.2197 90.0909 23.6667 90.2045 23.0455L95.1818 23.0682C95.053 24.1364 94.7311 25.1667 94.2159 26.1591C93.7083 27.1439 93.0227 28.0265 92.1591 28.8068C91.303 29.5795 90.2803 30.1932 89.0909 30.6477C87.9091 31.0947 86.572 31.3182 85.0795 31.3182C83.0038 31.3182 81.1477 30.8485 79.5114 29.9091C77.8826 28.9697 76.5947 27.6098 75.6477 25.8295C74.7083 24.0492 74.2386 21.8939 74.2386 19.3636C74.2386 16.8258 74.7159 14.6667 75.6705 12.8864C76.625 11.1061 77.9205 9.75 79.5568 8.81818C81.1932 7.87879 83.0341 7.40909 85.0795 7.40909C86.428 7.40909 87.678 7.59848 88.8295 7.97727C89.9886 8.35606 91.0152 8.90909 91.9091 9.63636C92.803 10.3561 93.5303 11.2386 94.0909 12.2841C94.6591 13.3295 95.0227 14.5265 95.1818 15.875Z" fill="#479CFF" fill-opacity="0.8"/>
<path d="M43.0426 31.3409C41.2472 31.3409 39.7017 30.9773 38.4062 30.25C37.1184 29.5152 36.1259 28.4773 35.429 27.1364C34.732 25.7879 34.3835 24.1932 34.3835 22.3523C34.3835 20.5568 34.732 18.9811 35.429 17.625C36.1259 16.2689 37.107 15.2121 38.3722 14.4545C39.6449 13.697 41.1373 13.3182 42.8494 13.3182C44.0009 13.3182 45.0729 13.5038 46.0653 13.875C47.0653 14.2386 47.9366 14.7879 48.679 15.5227C49.429 16.2576 50.0123 17.1818 50.429 18.2955C50.8456 19.4015 51.054 20.697 51.054 22.1818V23.5114H36.3153V20.5114H46.4972C46.4972 19.8144 46.3456 19.197 46.0426 18.6591C45.7396 18.1212 45.3191 17.7008 44.7812 17.3977C44.2509 17.0871 43.6335 16.9318 42.929 16.9318C42.1941 16.9318 41.5426 17.1023 40.9744 17.4432C40.4138 17.7765 39.9744 18.2273 39.6562 18.7955C39.3381 19.3561 39.1752 19.9811 39.1676 20.6705V23.5227C39.1676 24.3864 39.3267 25.1326 39.6449 25.7614C39.9706 26.3902 40.429 26.875 41.0199 27.2159C41.6108 27.5568 42.3116 27.7273 43.1222 27.7273C43.66 27.7273 44.1525 27.6515 44.5994 27.5C45.0464 27.3485 45.429 27.1212 45.7472 26.8182C46.0653 26.5152 46.3078 26.1439 46.4744 25.7045L50.9517 26C50.7244 27.0758 50.2585 28.0152 49.554 28.8182C48.857 29.6136 47.9555 30.2348 46.8494 30.6818C45.7509 31.1212 44.482 31.3409 43.0426 31.3409ZM54.304 31V7.72727H59.1449V16.4773H59.2926C59.5047 16.0076 59.8116 15.5303 60.2131 15.0455C60.6222 14.553 61.1525 14.1439 61.804 13.8182C62.4631 13.4848 63.2813 13.3182 64.2585 13.3182C65.5313 13.3182 66.7055 13.6515 67.7812 14.3182C68.857 14.9773 69.7169 15.9735 70.3608 17.3068C71.0047 18.6326 71.3267 20.2955 71.3267 22.2955C71.3267 24.2424 71.0123 25.8864 70.3835 27.2273C69.7623 28.5606 68.9138 29.572 67.8381 30.2614C66.7699 30.9432 65.5729 31.2841 64.2472 31.2841C63.3078 31.2841 62.5085 31.1288 61.8494 30.8182C61.1979 30.5076 60.6638 30.1174 60.2472 29.6477C59.8305 29.1705 59.5123 28.6894 59.2926 28.2045H59.0767V31H54.304ZM59.0426 22.2727C59.0426 23.3106 59.1866 24.2159 59.4744 24.9886C59.7623 25.7614 60.179 26.3636 60.7244 26.7955C61.2699 27.2197 61.9328 27.4318 62.7131 27.4318C63.5009 27.4318 64.1676 27.2159 64.7131 26.7841C65.2585 26.3447 65.6714 25.7386 65.9517 24.9659C66.2396 24.1856 66.3835 23.2879 66.3835 22.2727C66.3835 21.2652 66.2434 20.3788 65.9631 19.6136C65.6828 18.8485 65.2699 18.25 64.7244 17.8182C64.179 17.3864 63.5085 17.1705 62.7131 17.1705C61.9252 17.1705 61.2585 17.3788 60.7131 17.7955C60.1752 18.2121 59.7623 18.803 59.4744 19.5682C59.1866 20.3333 59.0426 21.2348 59.0426 22.2727ZM98.6193 31V13.5455H103.46V31H98.6193ZM101.051 11.2955C100.331 11.2955 99.714 11.0568 99.1989 10.5795C98.6913 10.0947 98.4375 9.51515 98.4375 8.84091C98.4375 8.17424 98.6913 7.60227 99.1989 7.125C99.714 6.64015 100.331 6.39773 101.051 6.39773C101.771 6.39773 102.384 6.64015 102.892 7.125C103.407 7.60227 103.665 8.17424 103.665 8.84091C103.665 9.51515 103.407 10.0947 102.892 10.5795C102.384 11.0568 101.771 11.2955 101.051 11.2955ZM112.179 20.9091V31H107.338V13.5455H111.952V16.625H112.156C112.543 15.6098 113.19 14.8068 114.099 14.2159C115.009 13.6174 116.111 13.3182 117.406 13.3182C118.618 13.3182 119.675 13.5833 120.577 14.1136C121.478 14.6439 122.179 15.4015 122.679 16.3864C123.179 17.3636 123.429 18.5303 123.429 19.8864V31H118.588V20.75C118.596 19.6818 118.323 18.8485 117.77 18.25C117.217 17.6439 116.455 17.3409 115.486 17.3409C114.834 17.3409 114.259 17.4811 113.759 17.7614C113.266 18.0417 112.88 18.4508 112.599 18.9886C112.327 19.5189 112.187 20.1591 112.179 20.9091ZM135.199 31.3409C133.403 31.3409 131.858 30.9773 130.562 30.25C129.275 29.5152 128.282 28.4773 127.585 27.1364C126.888 25.7879 126.54 24.1932 126.54 22.3523C126.54 20.5568 126.888 18.9811 127.585 17.625C128.282 16.2689 129.263 15.2121 130.528 14.4545C131.801 13.697 133.294 13.3182 135.006 13.3182C136.157 13.3182 137.229 13.5038 138.222 13.875C139.222 14.2386 140.093 14.7879 140.835 15.5227C141.585 16.2576 142.169 17.1818 142.585 18.2955C143.002 19.4015 143.21 20.697 143.21 22.1818V23.5114H128.472V20.5114H138.653C138.653 19.8144 138.502 19.197 138.199 18.6591C137.896 18.1212 137.475 17.7008 136.938 17.3977C136.407 17.0871 135.79 16.9318 135.085 16.9318C134.35 16.9318 133.699 17.1023 133.131 17.4432C132.57 17.7765 132.131 18.2273 131.812 18.7955C131.494 19.3561 131.331 19.9811 131.324 20.6705V23.5227C131.324 24.3864 131.483 25.1326 131.801 25.7614C132.127 26.3902 132.585 26.875 133.176 27.2159C133.767 27.5568 134.468 27.7273 135.278 27.7273C135.816 27.7273 136.309 27.6515 136.756 27.5C137.203 27.3485 137.585 27.1212 137.903 26.8182C138.222 26.5152 138.464 26.1439 138.631 25.7045L143.108 26C142.881 27.0758 142.415 28.0152 141.71 28.8182C141.013 29.6136 140.112 30.2348 139.006 30.6818C137.907 31.1212 136.638 31.3409 135.199 31.3409ZM146.369 31V13.5455H150.983V16.625H151.188C151.551 15.6023 152.157 14.7955 153.006 14.2045C153.854 13.6136 154.869 13.3182 156.051 13.3182C157.248 13.3182 158.267 13.6174 159.108 14.2159C159.949 14.8068 160.509 15.6098 160.79 16.625H160.972C161.328 15.625 161.972 14.8258 162.903 14.2273C163.843 13.6212 164.953 13.3182 166.233 13.3182C167.862 13.3182 169.184 13.8371 170.199 14.875C171.222 15.9053 171.733 17.3674 171.733 19.2614V31H166.903V20.2159C166.903 19.2462 166.646 18.5189 166.131 18.0341C165.616 17.5492 164.972 17.3068 164.199 17.3068C163.32 17.3068 162.634 17.5871 162.142 18.1477C161.65 18.7008 161.403 19.4318 161.403 20.3409V31H156.71V20.1136C156.71 19.2576 156.464 18.5758 155.972 18.0682C155.487 17.5606 154.847 17.3068 154.051 17.3068C153.513 17.3068 153.028 17.4432 152.597 17.7159C152.172 17.9811 151.835 18.3561 151.585 18.8409C151.335 19.3182 151.21 19.8788 151.21 20.5227V31H146.369ZM180.534 31.3295C179.42 31.3295 178.428 31.1364 177.557 30.75C176.686 30.3561 175.996 29.7765 175.489 29.0114C174.989 28.2386 174.739 27.2765 174.739 26.125C174.739 25.1553 174.917 24.3409 175.273 23.6818C175.629 23.0227 176.114 22.4924 176.727 22.0909C177.341 21.6894 178.038 21.3864 178.818 21.1818C179.606 20.9773 180.432 20.8333 181.295 20.75C182.311 20.6439 183.129 20.5455 183.75 20.4545C184.371 20.3561 184.822 20.2121 185.102 20.0227C185.383 19.8333 185.523 19.553 185.523 19.1818V19.1136C185.523 18.3939 185.295 17.8371 184.841 17.4432C184.394 17.0492 183.758 16.8523 182.932 16.8523C182.061 16.8523 181.367 17.0455 180.852 17.4318C180.337 17.8106 179.996 18.2879 179.83 18.8636L175.352 18.5C175.58 17.4394 176.027 16.5227 176.693 15.75C177.36 14.9697 178.22 14.3712 179.273 13.9545C180.333 13.5303 181.561 13.3182 182.955 13.3182C183.924 13.3182 184.852 13.4318 185.739 13.6591C186.633 13.8864 187.424 14.2386 188.114 14.7159C188.811 15.1932 189.36 15.8068 189.761 16.5568C190.163 17.2992 190.364 18.1894 190.364 19.2273V31H185.773V28.5795H185.636C185.356 29.125 184.981 29.6061 184.511 30.0227C184.042 30.4318 183.477 30.7538 182.818 30.9886C182.159 31.2159 181.398 31.3295 180.534 31.3295ZM181.92 27.9886C182.633 27.9886 183.261 27.8485 183.807 27.5682C184.352 27.2803 184.78 26.8939 185.091 26.4091C185.402 25.9242 185.557 25.375 185.557 24.7614V22.9091C185.405 23.0076 185.197 23.0985 184.932 23.1818C184.674 23.2576 184.383 23.3295 184.057 23.3977C183.731 23.4583 183.405 23.5152 183.08 23.5682C182.754 23.6136 182.458 23.6553 182.193 23.6932C181.625 23.7765 181.129 23.9091 180.705 24.0909C180.28 24.2727 179.951 24.5189 179.716 24.8295C179.481 25.1326 179.364 25.5114 179.364 25.9659C179.364 26.625 179.602 27.1288 180.08 27.4773C180.564 27.8182 181.178 27.9886 181.92 27.9886Z" fill="white"/>
</svg>
