<svg width="248" height="26" viewBox="0 0 248 26" fill="none" xmlns="http://www.w3.org/2000/svg">
<path d="M10.88 0.735999C12.0747 0.735999 13.1387 1.016 14.072 1.576C15.0053 2.11733 15.7333 2.87333 16.256 3.844C16.7787 4.796 17.04 5.86933 17.04 7.064V7.428C17.04 8.62267 16.7787 9.70533 16.256 10.676C15.7333 11.6467 15.0053 12.412 14.072 12.972C13.1387 13.5133 12.0747 13.784 10.88 13.784H6.26V20H0.072V0.735999H10.88ZM6.26 9.276H8.808C9.46133 9.276 9.94667 9.108 10.264 8.772C10.6 8.436 10.768 7.97867 10.768 7.4V7.176C10.768 6.57867 10.6 6.12133 10.264 5.804C9.94667 5.468 9.46133 5.3 8.808 5.3H6.26V9.276ZM29.875 4.852C30.3044 4.852 30.687 4.908 31.023 5.02C31.359 5.11333 31.527 5.16933 31.527 5.188V9.864H29.735C28.5777 9.864 27.7377 10.1627 27.215 10.76C26.711 11.3573 26.459 12.244 26.459 13.42V20H20.887V5.216H25.451L25.815 7.456C26.151 6.59733 26.683 5.95333 27.411 5.524C28.139 5.076 28.9604 4.852 29.875 4.852ZM42.4099 4.88C45.0046 4.88 47.0393 5.54267 48.5139 6.868C50.0073 8.17467 50.7539 10.088 50.7539 12.608C50.7539 15.128 50.0073 17.0507 48.5139 18.376C47.0393 19.6827 45.0046 20.336 42.4099 20.336C39.8153 20.336 37.7806 19.6827 36.3059 18.376C34.8313 17.0693 34.0939 15.1467 34.0939 12.608C34.0939 10.0693 34.8313 8.14667 36.3059 6.84C37.7806 5.53333 39.8153 4.88 42.4099 4.88ZM42.4099 8.66C40.5806 8.66 39.6659 9.71467 39.6659 11.824V13.42C39.6659 15.5107 40.5806 16.556 42.4099 16.556C44.2579 16.556 45.1819 15.5107 45.1819 13.42V11.824C45.1819 9.71467 44.2579 8.66 42.4099 8.66ZM74.0697 4.88C75.7497 4.88 77.0097 5.36533 77.8497 6.336C78.6897 7.288 79.1097 8.65067 79.1097 10.424V20H73.5377V11.096C73.5377 10.4613 73.3791 9.95733 73.0617 9.584C72.7631 9.192 72.3337 8.996 71.7737 8.996C71.1204 8.996 70.5884 9.22 70.1777 9.668C69.7671 10.116 69.5617 10.6667 69.5617 11.32V20H63.9897V11.096C63.9897 10.4613 63.8311 9.95733 63.5137 9.584C63.2151 9.192 62.7857 8.996 62.2257 8.996C61.5724 8.996 61.0404 9.22 60.6297 9.668C60.2191 10.116 60.0137 10.6667 60.0137 11.32V20H54.4417V5.216H59.0057L59.3697 7.428C59.9297 6.644 60.6671 6.028 61.5817 5.58C62.5151 5.11333 63.4951 4.88 64.5217 4.88C66.7431 4.88 68.2364 5.72933 69.0017 7.428C69.5804 6.644 70.3177 6.028 71.2137 5.58C72.1284 5.11333 73.0804 4.88 74.0697 4.88ZM93.1857 4.88C95.1831 4.88 96.7231 5.53333 97.8057 6.84C98.8884 8.14667 99.4297 10.0787 99.4297 12.636C99.4297 15.1747 98.8884 17.0973 97.8057 18.404C96.7231 19.692 95.1831 20.336 93.1857 20.336C91.4684 20.336 90.0871 19.776 89.0417 18.656V25.516H83.4697V5.216H88.0057L88.4817 7.316C89.5644 5.692 91.1324 4.88 93.1857 4.88ZM91.4497 8.996C90.6284 8.996 90.0124 9.28533 89.6017 9.864C89.1911 10.4427 88.9857 11.1987 88.9857 12.132V13.056C88.9857 13.9893 89.1911 14.7547 89.6017 15.352C90.0124 15.9307 90.6284 16.22 91.4497 16.22C93.0551 16.22 93.8577 15.2587 93.8577 13.336V11.852C93.8577 9.948 93.0551 8.996 91.4497 8.996ZM112.974 5.216V8.996H109.838V14.624C109.838 15.296 109.95 15.7907 110.174 16.108C110.398 16.4067 110.808 16.556 111.406 16.556H112.974V19.832C112.526 19.9813 111.947 20.1027 111.238 20.196C110.528 20.2893 109.912 20.336 109.39 20.336C107.747 20.336 106.478 20.0373 105.582 19.44C104.704 18.8427 104.266 17.8253 104.266 16.388V8.996H102.194V5.216H104.49L105.694 0.735999H109.838V5.216H112.974ZM123.587 4.88C125.566 4.88 127.236 5.272 128.599 6.056C129.98 6.82133 130.671 8.016 130.671 9.64H125.491C125.491 9.09867 125.248 8.716 124.763 8.492C124.427 8.30533 124.007 8.212 123.503 8.212C122.159 8.212 121.487 8.52933 121.487 9.164C121.487 9.51867 121.72 9.77067 122.187 9.92C122.654 10.0693 123.419 10.228 124.483 10.396C125.79 10.5827 126.882 10.8067 127.759 11.068C128.636 11.3107 129.402 11.7587 130.055 12.412C130.708 13.0467 131.035 13.9427 131.035 15.1C131.035 16.9853 130.326 18.3293 128.907 19.132C127.507 19.9347 125.668 20.336 123.391 20.336C122.084 20.336 120.852 20.1587 119.695 19.804C118.538 19.4307 117.595 18.8613 116.867 18.096C116.139 17.3307 115.775 16.36 115.775 15.184H120.955V15.296C120.974 15.9307 121.235 16.3787 121.739 16.64C122.262 16.8827 122.812 17.004 123.391 17.004C124.94 17.004 125.715 16.64 125.715 15.912C125.715 15.5387 125.472 15.268 124.987 15.1C124.502 14.932 123.708 14.7547 122.607 14.568C121.282 14.344 120.19 14.1013 119.331 13.84C118.491 13.5787 117.754 13.14 117.119 12.524C116.484 11.8893 116.167 11.012 116.167 9.892C116.167 8.08133 116.848 6.79333 118.211 6.028C119.592 5.26267 121.384 4.88 123.587 4.88ZM194.432 0.399999C196.28 0.399999 197.941 0.679999 199.416 1.24C200.891 1.8 202.057 2.63067 202.916 3.732C203.793 4.81467 204.232 6.14 204.232 7.708H198.324C198.324 6.90533 197.969 6.26133 197.26 5.776C196.551 5.272 195.692 5.02 194.684 5.02C193.228 5.02 192.127 5.412 191.38 6.196C190.633 6.96133 190.26 8.05333 190.26 9.472V11.264C190.26 12.6827 190.633 13.784 191.38 14.568C192.127 15.3333 193.228 15.716 194.684 15.716C195.692 15.716 196.551 15.4827 197.26 15.016C197.969 14.5307 198.324 13.9147 198.324 13.168H193.956V9.248H204.232V20H201.04L200.424 18.096C198.669 19.5893 196.373 20.336 193.536 20.336C190.344 20.336 187.945 19.5053 186.34 17.844C184.735 16.164 183.932 13.672 183.932 10.368C183.932 7.10133 184.837 4.628 186.648 2.948C188.477 1.24933 191.072 0.399999 194.432 0.399999ZM219.876 0.735999C221.071 0.735999 222.135 1.016 223.068 1.576C224.001 2.11733 224.729 2.87333 225.252 3.844C225.775 4.796 226.036 5.86933 226.036 7.064V7.428C226.036 8.62267 225.775 9.70533 225.252 10.676C224.729 11.6467 224.001 12.412 223.068 12.972C222.135 13.5133 221.071 13.784 219.876 13.784H215.256V20H209.068V0.735999H219.876ZM215.256 9.276H217.804C218.457 9.276 218.943 9.108 219.26 8.772C219.596 8.436 219.764 7.97867 219.764 7.4V7.176C219.764 6.57867 219.596 6.12133 219.26 5.804C218.943 5.468 218.457 5.3 217.804 5.3H215.256V9.276ZM241.363 5.664V20H235.175V5.664H228.847V0.735999H247.663V5.664H241.363Z" fill="#2A9D8F"/>
<path d="M132.996 23.528V21.792H146.996V23.528H132.996ZM159.504 0.399999C159.373 1.37067 158.925 2.584 158.16 4.04C157.395 5.47733 156.48 6.924 155.416 8.38C154.371 9.81733 153.391 11.0027 152.476 11.936H158.02V7.932C158.599 7.11067 159.187 6.14 159.784 5.02C160.381 3.9 160.773 2.976 160.96 2.248H163.34V11.936H166.028V16.052H163.34V20H158.02V16.052H148.64V11.88C149.648 10.424 150.647 8.66 151.636 6.588C152.625 4.516 153.419 2.45333 154.016 0.399999H159.504ZM167.672 23.528V21.792H181.672V23.528H167.672Z" fill="white"/>
</svg>
