<svg width="95" height="51" viewBox="0 0 95 51" fill="none" xmlns="http://www.w3.org/2000/svg">
<path d="M41.4 43C40.712 43 40.096 42.896 39.552 42.688C39.024 42.464 38.608 42.096 38.304 41.584C38 41.056 37.848 40.344 37.848 39.448V25.336H39.768V39.184C39.768 39.76 39.864 40.2 40.056 40.504C40.248 40.792 40.504 40.992 40.824 41.104C41.144 41.2 41.472 41.248 41.808 41.248H48.144V43H41.4ZM56.5339 43.144C55.5419 43.144 54.6459 43.056 53.8459 42.88C53.0459 42.704 52.3579 42.408 51.7819 41.992C51.2219 41.56 50.7899 40.984 50.4859 40.264C50.1819 39.528 50.0299 38.616 50.0299 37.528V25.336H51.9499V37.528C51.9499 38.536 52.1259 39.32 52.4779 39.88C52.8459 40.44 53.3739 40.84 54.0619 41.08C54.7499 41.304 55.5739 41.416 56.5339 41.416C57.4939 41.416 58.3179 41.304 59.0059 41.08C59.6939 40.84 60.2139 40.44 60.5659 39.88C60.9339 39.32 61.1179 38.536 61.1179 37.528V25.336H63.0379V37.528C63.0379 38.616 62.8859 39.528 62.5819 40.264C62.2779 40.984 61.8379 41.56 61.2619 41.992C60.7019 42.408 60.0219 42.704 59.2219 42.88C58.4219 43.056 57.5259 43.144 56.5339 43.144ZM72.2726 43.144C71.2166 43.144 70.2966 43.024 69.5126 42.784C68.7286 42.544 68.0806 42.112 67.5686 41.488C67.0566 40.848 66.6726 39.936 66.4166 38.752C66.1766 37.568 66.0566 36.024 66.0566 34.12C66.0566 32.328 66.1846 30.856 66.4406 29.704C66.6966 28.536 67.0806 27.624 67.5926 26.968C68.1206 26.312 68.7846 25.856 69.5846 25.6C70.3846 25.328 71.3286 25.192 72.4166 25.192C72.9126 25.192 73.4646 25.224 74.0726 25.288C74.6806 25.352 75.2806 25.432 75.8726 25.528C76.4646 25.608 77.0006 25.712 77.4806 25.84V27.256C77.2086 27.208 76.8246 27.16 76.3286 27.112C75.8326 27.064 75.2646 27.024 74.6246 26.992C74.0006 26.944 73.3606 26.92 72.7046 26.92C71.8566 26.92 71.1286 27.016 70.5206 27.208C69.9126 27.4 69.4166 27.76 69.0326 28.288C68.6646 28.8 68.3926 29.528 68.2166 30.472C68.0406 31.416 67.9526 32.64 67.9526 34.144C67.9526 35.664 68.0326 36.912 68.1926 37.888C68.3686 38.848 68.6406 39.584 69.0086 40.096C69.3766 40.608 69.8566 40.96 70.4486 41.152C71.0406 41.344 71.7766 41.44 72.6566 41.44C73.8566 41.44 74.8406 41.408 75.6086 41.344C76.3766 41.28 77.0006 41.208 77.4806 41.128V42.568C77.0006 42.68 76.4646 42.784 75.8726 42.88C75.2966 42.96 74.6966 43.024 74.0726 43.072C73.4646 43.12 72.8646 43.144 72.2726 43.144ZM80.4339 43V25.336H82.3539V33.52H91.1859V25.336H93.0819V43H91.1859V35.248H82.3539V43H80.4339Z" fill="white"/>
<path d="M1.368 24L3.384 6.336H5.328L10.032 21.6L14.64 6.336H16.608L18.672 24H16.824L15.048 8.52L15.36 8.568L10.896 24H9.144L4.56 8.592L4.92 8.544L3.216 24H1.368ZM21.8871 24V6.336H23.8071V24H21.8871ZM27.5121 24V6.336H29.4321V14.52H38.2641V6.336H40.1601V24H38.2641V16.248H29.4321V24H27.5121ZM42.8394 24L48.8874 6.336H51.3354L57.3834 24H55.4154L53.6394 18.96H46.5354L44.8074 24H42.8394ZM47.0154 17.232H53.1594L50.1114 8.016L47.0154 17.232ZM60.0433 24V6.336H61.9633V24H60.0433Z" fill="white"/>
</svg>
