<svg width="34" height="34" viewBox="0 0 34 34" fill="none" xmlns="http://www.w3.org/2000/svg">
<path d="M15.056 4.49976H19.1862V23.4258C17.4232 23.7876 15.6287 23.9743 13.8289 23.9831C8.78516 23.9779 6.16016 21.7248 6.16016 17.3977C6.16016 13.231 8.94453 10.5227 13.2602 10.5227C13.8654 10.5109 14.4695 10.5809 15.056 10.731V4.49976ZM15.056 14.0227C14.607 13.8746 14.136 13.8041 13.6633 13.8143C11.5799 13.8143 10.3685 15.0883 10.3685 17.3206C10.3685 19.4945 11.5216 20.6945 13.6372 20.6945C14.1121 20.6944 14.5862 20.6596 15.056 20.5904V14.0279V14.0227Z" fill="#44B78B"/>
<path d="M25.7488 10.811V20.2902C25.7488 23.5537 25.504 25.1225 24.7873 26.4756C24.0559 27.8515 22.8599 28.9231 21.4123 29.4996L17.5811 27.6944C18.9729 27.2177 20.1387 26.242 20.8529 24.9558C21.4425 23.7881 21.629 22.435 21.629 18.8756V10.811H25.7488Z" fill="#44B78B"/>
<path d="M25.7542 4.52051H21.625V8.71634H25.7542V4.52051Z" fill="#44B78B"/>
</svg>
