<svg width="34" height="34" viewBox="0 0 34 34" fill="none" xmlns="http://www.w3.org/2000/svg">
<path d="M26.818 2.4165H7.65137C4.88994 2.4165 2.65137 4.65508 2.65137 7.4165V26.5832C2.65137 29.3446 4.88994 31.5832 7.65136 31.5832H26.818C29.5795 31.5832 31.818 29.3446 31.818 26.5832V7.4165C31.818 4.65508 29.5795 2.4165 26.818 2.4165Z" fill="#FFCA28"/>
<path d="M20.3604 26.6749L22.5077 25.2538C22.6761 25.7826 23.7418 27.0383 25.088 27.0383C26.4341 27.0383 27.0591 26.3031 27.0591 25.8156C27.0591 24.4872 25.6845 24.0189 25.0243 23.794C24.9166 23.7574 24.8281 23.7271 24.7674 23.7008C24.7363 23.6872 24.6893 23.6692 24.629 23.6462C23.8947 23.3657 21.1857 22.3307 21.1857 19.3305C21.1857 16.026 24.3747 15.646 25.096 15.646C25.5677 15.646 27.8363 15.7038 28.9661 17.8269L26.8827 19.281C26.4261 18.3557 25.6672 18.0501 25.2001 18.0501C24.0463 18.0501 23.8059 18.8959 23.8059 19.281C23.8059 20.3614 25.0595 20.8457 26.118 21.2545C26.3949 21.3615 26.6585 21.4633 26.8827 21.5693C28.0366 22.1145 29.7354 23.0068 29.7354 25.8156C29.7354 27.2225 28.5554 29.5002 25.5847 29.5002C21.5943 29.5002 20.5366 27.1044 20.3604 26.6749Z" fill="#3E3E3E"/>
<path d="M9.94336 26.9569L12.1816 25.5367C12.3569 26.0652 13.0385 27.0395 14.0272 27.0395C15.0161 27.0395 15.5222 26.0239 15.5222 25.5367V15.9585H18.2748V25.5367C18.3194 26.8579 17.5867 29.5002 14.3529 29.5002C11.3798 29.5002 10.1438 27.7332 9.94336 26.9569Z" fill="#3E3E3E"/>
</svg>
