<svg width="30" height="30" viewBox="0 0 30 30" fill="none" xmlns="http://www.w3.org/2000/svg">
<g clip-path="url(#clip0_869_5069)">
<path d="M23.5523 30H6.44769C2.88635 30 0 27.1137 0 23.5523V6.44769C0 2.88635 2.88635 0 6.44769 0H23.5529C27.1137 0 30 2.88635 30 6.44769V23.5529C30 27.1137 27.1137 30 23.5523 30Z" fill="#393687"/>
<path d="M7.01505 22.5H5.35352V6.34619H10.9151C12.4226 6.34619 13.5418 6.81523 14.2727 7.75388C15.0031 8.69196 15.3689 9.92311 15.3689 11.4456C15.3689 11.9845 15.3533 12.4495 15.3227 12.8418C15.2916 13.2347 15.1958 13.7268 15.0343 14.3193C14.8727 14.9112 14.6535 15.3958 14.3766 15.7731C14.0997 16.1504 13.6768 16.481 13.1074 16.7654C12.5379 17.0504 11.8612 17.1923 11.0766 17.1923H7.01505V22.5ZM7.01505 15.577H10.8689C11.4227 15.577 11.8918 15.4691 12.2766 15.2539C12.6608 15.0381 12.9418 14.8079 13.1189 14.5616C13.2954 14.3152 13.4339 13.9616 13.5343 13.5C13.6341 13.0379 13.6883 12.6923 13.6958 12.461C13.7033 12.2308 13.7074 11.8997 13.7074 11.4687C13.7074 9.13042 12.7301 7.961 10.7766 7.961H7.01505V15.577Z" fill="#89D3FF"/>
<path d="M17.0078 19.5692L18.6232 19.5C18.6844 20.0694 18.9694 20.5119 19.477 20.8269C19.9847 21.1425 20.5692 21.3 21.2309 21.3C21.8926 21.3 22.4655 21.15 22.9501 20.85C23.4347 20.55 23.677 20.1196 23.677 19.5583C23.677 18.9969 23.4693 18.5504 23.054 18.2198C22.6386 17.8892 22.1309 17.6279 21.5309 17.4352C20.9309 17.2431 20.3274 17.0394 19.7194 16.8236C19.1113 16.6085 18.577 16.2698 18.1155 15.8083C17.5461 15.2694 17.2617 14.6123 17.2617 13.8352C17.2617 13.0581 17.5732 12.3346 18.1963 11.6654C18.8194 10.9961 19.8307 10.6621 21.2309 10.6621C21.7236 10.6621 22.1845 10.7198 22.6155 10.8352C23.0459 10.9506 23.354 11.0625 23.5386 11.1698L23.8155 11.3308L23.2847 12.7852C22.792 12.401 22.1459 12.2083 21.3463 12.2083C20.5461 12.2083 19.9501 12.3583 19.5578 12.6583C19.1655 12.9583 18.9694 13.339 18.9694 13.8C18.9694 14.3077 19.2151 14.7081 19.7078 15C20.1999 15.2925 20.7538 15.5388 21.3694 15.7385C21.9844 15.9386 22.5959 16.1613 23.204 16.4077C23.8115 16.654 24.3267 17.0388 24.7501 17.5615C25.1736 18.0842 25.3847 18.7765 25.3847 19.6385C25.3847 20.5004 25.0386 21.2504 24.3463 21.8885C23.654 22.5265 22.642 22.8461 21.3117 22.8461C19.9807 22.8461 18.9382 22.5306 18.1847 21.9C17.4307 21.2694 17.0384 20.4923 17.0078 19.5692Z" fill="#89D3FF"/>
</g>
<defs>
<clipPath id="clip0_869_5069">
<rect width="30" height="30" fill="white"/>
</clipPath>
</defs>
</svg>
