<svg width="34" height="34" viewBox="0 0 34 34" fill="none" xmlns="http://www.w3.org/2000/svg">
<path fill-rule="evenodd" clip-rule="evenodd" d="M13.8914 2.4165C11.6028 2.4165 9.74752 4.21289 9.74752 6.42885V9.20663H16.9197V9.97823H6.55991C4.2713 9.97823 2.41602 11.7746 2.41602 13.9906V20.0091C2.41602 22.225 4.2713 24.0214 6.55991 24.0214H8.95062V20.6264C8.95062 18.4105 10.8059 16.614 13.0946 16.614H20.7448C22.6813 16.614 24.2511 15.094 24.2511 13.219V6.42885C24.2511 4.21289 22.3959 2.4165 20.1073 2.4165H13.8914ZM12.9352 7.35477C13.7274 7.35477 14.3696 6.73294 14.3696 5.96589C14.3696 5.19883 13.7274 4.57699 12.9352 4.57699C12.1429 4.57699 11.5007 5.19883 11.5007 5.96589C11.5007 6.73294 12.1429 7.35477 12.9352 7.35477Z" fill="url(#paint0_linear_720_828)"/>
<path fill-rule="evenodd" clip-rule="evenodd" d="M20.1077 31.5832C22.3964 31.5832 24.2517 29.7868 24.2517 27.5709V24.7931H17.0795V24.0215H27.4393C29.728 24.0215 31.5832 22.2251 31.5832 20.0091V13.9906C31.5832 11.7746 29.728 9.97827 27.4393 9.97827H25.0486V13.3733C25.0486 15.5893 23.1933 17.3857 20.9047 17.3857H13.2544C11.3178 17.3857 9.74805 18.9057 9.74805 20.7807V27.5709C9.74805 29.7868 11.6034 31.5832 13.8919 31.5832H20.1077ZM21.0641 26.645C20.2718 26.645 19.6296 27.2667 19.6296 28.0338C19.6296 28.8009 20.2718 29.4227 21.0641 29.4227C21.8563 29.4227 22.4985 28.8009 22.4985 28.0338C22.4985 27.2667 21.8563 26.645 21.0641 26.645Z" fill="url(#paint1_linear_720_828)"/>
<defs>
<linearGradient id="paint0_linear_720_828" x1="13.3336" y1="2.4165" x2="13.3336" y2="24.0214" gradientUnits="userSpaceOnUse">
<stop stop-color="#327EBD"/>
<stop offset="1" stop-color="#1565A7"/>
</linearGradient>
<linearGradient id="paint1_linear_720_828" x1="20.6657" y1="9.97827" x2="20.6657" y2="31.5832" gradientUnits="userSpaceOnUse">
<stop stop-color="#FFDA4B"/>
<stop offset="1" stop-color="#F9C600"/>
</linearGradient>
</defs>
</svg>
