<svg width="38" height="38" viewBox="0 0 38 38" fill="none" xmlns="http://www.w3.org/2000/svg">
<path d="M27.5404 3.84985H6.6772C6.00348 3.85173 5.3579 4.1202 4.8815 4.59659C4.40511 5.07299 4.13665 5.71857 4.13477 6.39229V29.4013C4.13665 30.075 4.40511 30.7206 4.8815 31.197C5.3579 31.6734 6.00348 31.9418 6.6772 31.9437H20.419C20.2622 25.1061 22.598 11.837 27.5404 3.84985Z" fill="#0F80CC"/>
<path d="M26.7828 4.59204H6.6772C6.19994 4.59267 5.7424 4.78254 5.40493 5.12002C5.06745 5.45749 4.87758 5.91503 4.87695 6.39229V27.7222C10.035 25.7768 15.4799 24.6997 20.9901 24.5349C22.4475 17.7588 24.3833 11.0945 26.7828 4.59204Z" fill="url(#paint0_linear_720_848)"/>
<path d="M32.4068 3.09702C30.9818 1.82284 29.248 2.33465 27.538 3.8499C27.2851 4.07552 27.0321 4.3249 26.7804 4.59209C23.5636 8.39657 21.3392 12.9386 20.3061 17.8125C20.625 18.5083 20.8771 19.2327 21.059 19.9762C21.1017 20.1424 21.1409 20.2992 21.1778 20.4321C21.2514 20.7468 21.2965 20.9511 21.2965 20.9511C21.2965 20.9511 21.2704 20.8525 21.1623 20.5402L21.0922 20.3383C21.0804 20.3063 21.0649 20.2683 21.0471 20.2267C20.8571 19.7838 20.3346 18.8492 20.0971 18.4455C19.8988 19.0309 19.7231 19.5783 19.577 20.0735C20.0701 21.134 20.4321 22.2505 20.6552 23.3985C20.6552 23.3985 20.6196 23.262 20.4522 22.787C20.1305 22.0932 19.7738 21.4163 19.3834 20.7587C19.131 21.4101 19.024 22.1089 19.0699 22.806C19.3315 23.3274 19.5281 23.879 19.6554 24.4483C20.052 25.9718 20.3275 27.8279 20.3275 27.8279C20.3275 27.8279 20.337 27.9467 20.3513 28.1402C20.2991 29.4092 20.3249 30.6803 20.4284 31.9462C20.4873 33.1995 20.7207 34.4385 21.1219 35.6274L21.3357 35.5087C20.8381 33.7218 20.6462 31.8637 20.7681 30.0129C20.9916 26.0891 21.7663 22.2163 23.0694 18.5084C25.4563 12.2052 28.7694 7.1464 31.7976 4.7334C29.0354 7.22715 25.2972 15.3022 24.1774 18.2923C22.9982 21.371 22.1023 24.5508 21.5008 27.7923C22.2167 25.9833 23.6183 24.5304 25.4005 23.75C25.4005 23.75 26.8647 21.9438 28.5759 19.3646C27.4704 19.5952 26.3782 19.8857 25.3043 20.235C24.4731 20.5842 24.2486 20.7029 24.2486 20.7029C25.8354 19.7473 27.5118 18.9491 29.2539 18.3196C32.4317 13.3143 35.8944 6.20709 32.4079 3.09109" fill="#003B57"/>
<defs>
<linearGradient id="paint0_linear_720_848" x1="15.8044" y1="5.11389" x2="15.8044" y2="26.4872" gradientUnits="userSpaceOnUse">
<stop stop-color="#97D9F6"/>
<stop offset="0.92" stop-color="#0F80CC"/>
<stop offset="1" stop-color="#0F80CC"/>
</linearGradient>
</defs>
</svg>
